<mxfile host="app.diagrams.net" modified="2023-09-09T21:38:00.216Z" agent="Mozilla/5.0 (X11; Ubuntu; Linux x86_64; rv:109.0) Gecko/20100101 Firefox/116.0" etag="V2U55KDQhtGytamXzlnY" version="21.7.2" type="device">
  <diagram name="Page-1" id="cygJ_QA84-0ZIt_Bmf7b">
    <mxGraphModel dx="1637" dy="460" grid="1" gridSize="10" guides="1" tooltips="1" connect="1" arrows="1" fold="1" page="1" pageScale="1" pageWidth="850" pageHeight="1100" math="0" shadow="0">
      <root>
        <mxCell id="0" />
        <mxCell id="1" parent="0" />
        <mxCell id="tZlGh6HrKuFJbto6NnXd-10" value="VPC" style="sketch=0;outlineConnect=0;gradientColor=none;html=1;whiteSpace=wrap;fontSize=12;fontStyle=0;shape=mxgraph.aws4.group;grIcon=mxgraph.aws4.group_vpc;strokeColor=#879196;fillColor=none;verticalAlign=top;align=left;spacingLeft=30;fontColor=#879196;dashed=0;" parent="1" vertex="1">
          <mxGeometry x="-200" y="110" width="830" height="330" as="geometry" />
        </mxCell>
        <mxCell id="tZlGh6HrKuFJbto6NnXd-21" value="" style="rounded=1;arcSize=10;dashed=1;strokeColor=#ff0000;fillColor=none;gradientColor=none;dashPattern=8 4;strokeWidth=2;" parent="1" vertex="1">
          <mxGeometry x="-141.62" y="175.5" width="189" height="189" as="geometry" />
        </mxCell>
        <mxCell id="tZlGh6HrKuFJbto6NnXd-8" value="Private subnet" style="points=[[0,0],[0.25,0],[0.5,0],[0.75,0],[1,0],[1,0.25],[1,0.5],[1,0.75],[1,1],[0.75,1],[0.5,1],[0.25,1],[0,1],[0,0.75],[0,0.5],[0,0.25]];outlineConnect=0;gradientColor=none;html=1;whiteSpace=wrap;fontSize=12;fontStyle=0;container=0;pointerEvents=0;collapsible=0;recursiveResize=0;shape=mxgraph.aws4.group;grIcon=mxgraph.aws4.group_security_group;grStroke=0;strokeColor=#147EBA;fillColor=#E6F2F8;verticalAlign=top;align=left;spacingLeft=30;fontColor=#147EBA;dashed=0;fillOpacity=100;" parent="1" vertex="1">
          <mxGeometry x="140" y="140" width="460" height="250" as="geometry" />
        </mxCell>
        <mxCell id="tZlGh6HrKuFJbto6NnXd-20" value="" style="rounded=1;arcSize=10;dashed=1;strokeColor=#ff0000;fillColor=none;gradientColor=none;dashPattern=8 4;strokeWidth=2;" parent="1" vertex="1">
          <mxGeometry x="396.67" y="180.5" width="189" height="189" as="geometry" />
        </mxCell>
        <mxCell id="tZlGh6HrKuFJbto6NnXd-11" value="EC2 instance" style="points=[[0,0],[0.25,0],[0.5,0],[0.75,0],[1,0],[1,0.25],[1,0.5],[1,0.75],[1,1],[0.75,1],[0.5,1],[0.25,1],[0,1],[0,0.75],[0,0.5],[0,0.25]];outlineConnect=0;gradientColor=none;html=1;whiteSpace=wrap;fontSize=12;fontStyle=0;container=1;pointerEvents=0;collapsible=0;recursiveResize=0;shape=mxgraph.aws4.group;grIcon=mxgraph.aws4.group_ec2_instance_contents;strokeColor=#D86613;fillColor=none;verticalAlign=top;align=left;spacingLeft=30;fontColor=#D86613;dashed=0;" parent="1" vertex="1">
          <mxGeometry x="170.84" y="200" width="160" height="150" as="geometry" />
        </mxCell>
        <mxCell id="tZlGh6HrKuFJbto6NnXd-3" value="" style="shape=image;verticalLabelPosition=bottom;labelBackgroundColor=default;verticalAlign=top;aspect=fixed;imageAspect=0;image=data:image/png,iVBORw0KGgoAAAANSUhEUgAAAZAAAAEsCAYAAADtt+XCAAAACXBIWXMAAAsTAAALEwEAmpwYAAAgAElEQVR4nO2dd3gU1frHvycNEkJChwSkht4R+aGCJiIgkgCiIt0CNu71KqiICqhwvRYU5HoVy1UEG0oNoCgliehVAQtSpQcICR0JISGE5P39MbsaINmdM3NmZ3b3/TwPzy055T2zs/PZc+YUASagIKIIAJ0BXA2gBYDmAOoDiHb9CwOQB+AMgBMAdrn+bQGQIYTItiFsxg8gIgGgNYBu0O6tFgAaAYiFdm9FAiiAdm+dBrAXwA4A2wF8B2C7EIJ8HznDMOVCRLFENIqIviais2SOnUQ0k4iucj0wmCCGiMKJqB8RfUxER0zeW9lENJeI+hBRmN1tY5ighojauL7YBSa/2OXxOxH9g4gq2d1WxrcQ0RVENJ2Ijll0bx0mopeJKN7utjJMUEFErYjoMyIqsejLfSnHiGgisUgCHiJqQET/JaLzPrq3ColoFhHVs7vtDBPQEFENIvqIfCeOS9lPRLcQD20FHEQUQURPElG+TfdWHhE9RkThdl8Lhgk4iOgmIsqx6ct9KYuJqJrd14RRAxG1JaKtNt9Tbn4jopZ2XxOGCQiIKJKI/m3zl7os9hPRNXZfH8Y4RCSI6B6y7h2aUc4S0Ui7rw/D+DVEVJWI1tn8ZfbEeSIaYvd1YuQhohAimmHz/eONaUQUYve1Yhi/g4hqEdFGm7/AennE7uvF6Ie09x2f2H3T6GQu8XsRhtEPEdUlou02f3FlmWT3dWO8Q0ShRLTA7ptFknnEPRFHwh+KwyCiGACroa3yVVs2CIXFhThfcl510QAwhVgijoa02XNvALjVkvJh2SLzOwDMJJ795zh4NaiDcH1BZkOBPHbn7saSzCX45fgv2HpyK3bl7kLBhYI//14nqg4aRjdE22pt0ateL/So2wNVK1Q1W+0UIoIQYqrZghhLeAzA/WYLySvKw8qslVhxcAX25+1HTn4OcvJzcPLcSVSrWA1xUXGIi4pDo8qN0OeKPuhVrxeiwqLMVvt3aFujzDBbEKMONrqDIKLHAEwzmr/gQgHe/f1dzN4xGxtPbJTKGyJC0K9BP4xtOxbd47pDmLs1JrNEnAVpM+bWAgg1lB+ExfsWY/aO2Vh1aBUKiwt1540Mi0TPuj0xqsUopDRIMXNvFQHoJoRYb7QARi0sEIdARN0BpMPAF/xCyQW88/s7eP6X55Gdb34vxC61umBWt1noVKOTmWKeEUJMMR0MYxoiigWwCdqmmtKszVmL8evGY93RdaZj6VanG6Z1nYautboaLSITQDshxBnTwTCmYYE4ANI2ltsIbadTKfbm7sWwtGH48eiPSmMKESEY13YcpnSegsiwSKPFsEQcABH9G8BDsvn+OP8HRn8zGgv3LVQe09CEoXi7+9uIDo82kn2GEGKc6pgYeVggDoCIHgTwpmy+hfsW4q6Mu5BXlGdBVBpda3VFau9U1IqsZbQIloiNEFEnABsgOWFm5+md6Pd1P+z4Y4c1gQFoV60dlt60FA2iG8hmLQZwpRDiNwvCYiRggdgMEVWBdh5HDZl8H+z8AKO+GYUSKrEmsFI0qtwIK/qsQPMqzY0WwRKxCSJKB5Aok2f1odW4bdVtOH3+tDVBlaJmxZpI7Z2Kq2tfLZt1lRCilxUxMfphgdgMEb0AYIJMnvd3vI9R34yyKKKyqR1ZGxkpGWhRxfAEMZaIj3G9OP+fTJ6NJzbi2tRrkX8h36KoLic2IhbrBqwz8gOlixBigxUxMfpggdgIEVUAcAhAdb151h1dh+5Lu6OopMi6wMpBgUSeFUI8pzImpnyIaDmAvnrTHy04iqsWX4UDeQcsjKpsmsU2w48DfpSdSp4qhBhgVUyMd3ghob30g4Q8jp87jttW3WaLPADgSMERJC5LxO9//G60iGeJ6BmVMTFlQ0T1ISGPCyUXMHDVQFvkAWjvXO5Yc4fskGwKEdW1KibGOywQexktk3jihonIOptlVSy6YIn4DcNkEs/ZOQf/Oyw12qWcVVmr8Pnez2WyhECynYxaeAjLJojoCgD7ofMz2HxyMzos7OCTl+Z64OEsZ0NEW6BzWnj+hXw0nddUyRoiszSOaYztg7YjIiRCb5atQog2VsbElA/3QOyjByQEPvmnyY6RB8A9ESfj+nGie03RzC0zHSEPQFvX9Na2t2SytCY+Dtc2WCD2ofswppz8HCzbv8zKWAyhSCLPKgyJ0eihN2ExFWPm5plWxiLN9E3TZTdm1N1eRi0sEPvQPfF99o7ZKKZiK2MxjAKJPMMSUU6i3oTrjq7DkYIjFoYiz/68/fjthNQawSSrYmE8wwKxAdfiQd1DDE7sfZSGJeI4dL8TSM1MtTIOw0jGJb0FEKMGFog9tILO9x/nis/h5+M/WxyOeVgizsB1JIDuFXmp+x0qELm4WvBZIfbAArEH3duW/Hr8V9vWfchypOAIkpYnsUTspQ4AXTsUFpUUWbrXlRm2ntwq8x4kGlq7GR/DArEH3YsH953ZZ2Ucyjmcf5glYi+6763D+YetjMMU50vO41ThKZks1ayKhSkfFog96P6Snyw8aWUclsASsRXd+6M7ZepueeTk58gkN7QvPGMOFog96BbIiXMnrIzDMlgitlFZb0KnCyT7rFR8utvNqIMFYg/hehP6y/uPsmCJ2ILuEy1ljqW1g8ISqfjCrIqDKR8WCGMpLBGGCVxYIIzlKJLIczxVk2GcBQuE8QkKJDIZ2tYnLBGGcQgsEMZnsEQYJrBggTA+hSXCMIEDC4TxOW6JmFgFzRJhGAfAAmFs4XD+YSQuTzQrEX6xzjA2wgJhbEOBRCaBJcIwtsECYWyFJcIw/gsLhLEdlgjD+CcsEMYRsEQYxv9ggTCOQZFEprBEGMY3sEAYR6FAIhPBEmEYn8ACYRwHS4Rh/AMWCONIWCIM43xYIIxjUbBinSXCMBbCAmEcTU5+jgqJTGWJMIx6WCCM41EgkafBEmEY5bBAGL+AJcIwzoMFwvgNLBGGcRYsEMavYIkwjHNggTB+hyKJ/JMlwjDmYIEwfokCiTwFlgjDmIIFwvgtLBGGsRcWCOPXuCWy8/ROo0WwRBjGICwQxu/Jyc9B4rJElgjD+BgWCBMQKJLI8ywRhtEPC4QJGBRI5EmwRBhGNywQJqBgiTCM72CBMAEHS4RhfAMLhAlIWCIMYz0sECZgUSSRf7FEGKZsWCBMQKNAIhPAEmGYMmGBMAEPS4RhrIEFwgQFOfk5SFpmasU6S4RhLoEFwgQN2fnZLBGGUQgLhAkqFEnkBZYIw7BAmCBEgUSeAEuEYVggTHDCEmEY87BAmKCFJcIw5mCBMEENS4RhjMMCYYIeRRJ5kSXCBBssEIaBEomMB0uECTJYIAzjwi2RXad3GS2CJcIEFSwQhilFdn42EpclskQYRgcsEIa5BJYIw+iDBcKYIjYi1u4QLEGRRF5iiTCBDAuEMcXCngtRr1I9u8OwBAUSeRwsESaAYYEwpmgS0wQZKRkskfJhiTABCwuEMQ1LxCssESYgYYEwSmCJeOVxAC+zRJhAggXCKIMl4pXHwBJhAggWCKMUlohXWCJMwMACYZTDEvEKS4QJCFggjCUEg0SSlpva9oQlwvg9LBDGMgJdIofOHlIhkWksEcZfYYEwlsIS8cqjYIkwfgoLhLEclohXWCKMX8ICYXwCS8QrLBHG72CBMD6DJeIVlgjjV7BAGJ/CEvHKowBeYYkw/gALhPE5LBGvjANLhPEDWCCMLTSJaYL0lHSWSPmwRBjHwwJhbCMhJiEoJLI7d7fRIlgijKNhgTC2EgwSSVyWyBJhAhIWCGM7LBGvjAPwKkuEcRosEMYRsES8MhYsEcZhsEAYx8AS8QpLhHEULBDGUbBEvMISYRwDC4RxHCwRr7BEGEfAAmEcCUvEK2MBTGeJMHbCAmEcC0vEK4+AJcLYCAuEcTQsEa+wRBjbYIEwvmS2kUzBIJGkZaZWrLNEGFtggTC+5FEAM41kDHSJZJ3NUiIRACwRxmewQBhfQtBe/pqSSN1KddVG5RAUSeRZdRExjGdYIIxPEUKYlkhGSgZLpHy6qIyHYTzBAmF8DkvEMwokwjA+gQXC2AJLxDMsEcYfYIEwtsES8QxLhHE6LBDGVlginmGJME6GBcLYDkvEMywRxqmwQBhHwBLxjFsie3L32B0Kw/wJC4RxDCwRz2SdzULiskSWCOMYWCCMo2CJeIYlwjgJFgjjOEpJ5DUj+VkiDOMbWCCMI3FJZBxYImXCEmGcAAuEcSwsEc+wRBi7YYEwjoYl4hmWCGMnLBDG8bBEPMMSYeyCBcL4BSwRz7BEGDtggTB+gwqJpCcH9nkiLBHGl7BAGL/CrESaxjZliTCMIlggjN/BEvFM1tksJC3nbU8Y62GBMH4JS8QzB/MOskQYy2GBMH4LS8QzLBHGalggjF/DEvEMS4SxEhYI4/eUksgMI/lZIgxjDBYIExC4JPIoWCJlwhJhrIAFwgQMLBHPsEQY1bBAmICCJeIZlgijEhYIE3CwRDzDEmFUwQJhAhKWiGcO5h3EpA2T7A6D8XNYIEzAwhLxDIHsDoHxc1ggTEDDEmEY62CBMAGPKonER8WrDYxh/BwWCBMUqJBIRkoGS4RhSsECYYIGlgjDqIUFwgQVLBGGUQcLhAk6WCIMowYWCBOUlJLIdCP5WSIMwwJhghiXRB4DS4RhDMECYYIalgjDGIcFwgQ9LBGGMQYLhGHAEmEYI7BAGMYFS4Rh5GCBMEwpWCIMox8WCMNcAkuEYfTBAmGYMmCJMIx3WCAMUw4sEYbxDAuEYTygQiLpKbwVPBOYsEAYxgtmJdIsthlLhAlIWCAMo4NSEnnVSH6WCBOIsEAYRicuiTwOlgjDAGCBMIwULBGG+QsWCMNIwhJhGA0WCMMYgCXCMCwQhjEMS4QJdlggDGMClggTzLBAGMYkLBEmWGGBMIwCWCJMMMICYRhFsESYYIMFwjAKYYkwwQQLhGEUwxJhggUWCMNYQCmJvGIkv1sicVFxagNjGIWwQBjGIlwSGQ8TEslIyWCJMI6FBcIwFsISYQIZFgjDWAxLhAlUWCAM4wNYIkwgwgJhGB/BEmECDRYIw/gQlggTSLBAGMbHsESYQIEFwjA2wBJhAgEWCMPYBEuE8XdYIAxjIywRxp9hgTCMzbBEGH+FBcIwDoAlwvgjLBCGcQilJDLNSH6WCONrWCAM4yBcEnkCLBHGD2CBMIzDYIkw/gILxB7O601YObyylXGYJiYiRiZ5oVVxBBoqJJKe7N/niUSHRcsk1/2dYtTBArGHPL0J4ys591S6CqEVULVCVb3JSwCcszCcgMOsRJpXae7XEpGM+4xVcTDlwwKxB903u5OPNY2PioeA0Jv8jOuByEgQzBJhgTgfFog9HNGb0Mk9EMkvuO42MxcTjBKJCotC5Qip4dujVsXClA8LxB526E2YEJMgM0zkU7rU6iKT/Her4ggGgk0iV9a4UqZ3e1wIcdLKeJiyYYHYwy69CcNDwtG3fl8rYzHMgIYDZJLrliZTNsEkkVsa3SKTnO8tm2CB2IAQIh8Sv8glH9Q+oXrF6ri29rUyWTZaFUswESwS6d+gv0xyvrdsggViH2l6E/au1xtRYVFWxiJNvwb9EBYSJpNFd3sZzwS6RDpU74DGMY1lsvC9ZRMsEPvQfdNHh0djbNuxVsYiRagIxYQOE2SybBNCHLYqnmAkkCUysdNEmeQEIMOaSBhvsEDsYzUk1kWMbz8e1StWtzAc/dzb8l40i20mk2WpVbEEM6Uk8rKR/E6USNdaXTGw0UCZLN/zC3T7YIHYhBDiNIBUveljImIwqdMkCyPSR6WwSnim0zOy2T60IhbmT4lMQIBI5OWuL8vMvgKAuVbFwniHBWIvUg/WMa3GIDE+0aJQ9DHzmpmoE1VHJssvQohtVsXDBI5E/t767+hep7tMlvMA5lsUDqMDFoi9fAVgt97E4SHhWHDjAtkXjMoY23YsRrUYJZttphWxMBfj7xLpUbcHZlw9Qzbbh0KIU1bEw+hDqq/IqIeIRgH4r0yebae2oeuSrjhT5LvdG2664iYs671MduZVJoBmQogia6JiLoWIBIAXoZ0rIs2OP3YgaXkScvJz1AbmgYSYBKy7ZR2qVagmk60EQHMhhO4fYIx6uAdiPx8C2C+ToVXVVshIyUDdSnUtCulibm98Oxb0XCArDwD4F8vDt6joiXzf/3u0q9ZObWDl0KlGJ6Qlp8nKAwA+ZXnYD/dAHAAR3QJgkWy+nPwc3LLyFqw7us6CqDSe6/wcJnWaJPtiEwB+AdBFCFFsQViMF8z2RPKK8jAyfSQWZy5WG1gpBjUehNmJs42scToLoIUQIsuCsBgJuAfiDJYA+EI2U1xUHDJSMjC27ViEh4QrDahh5YZI7Z2KyZ0mG5EHARjD8rAPsz2R6PBoLOi5AC90eQGVwiopjS02IhYzrp6BeTfOM7pA9lmWhzPgHohDIKL60LZkMLRz4r4z+zBpwyR8vPtjU3FUq1ANEztNxJhWY1AhtILRYqYLIR41FQijBLM9EQA4WnAU//r1X5i1bRbOlxg/tykiJAIPtXkIT3V8ysiQlZv1ALrx0KgzYIE4CCJKgclFd1tObsG8PfOwJHMJtp7aqitPeEg4boi/Af0b9seQhCGoElHFTAjrAFwnhOAT4hyCCokAwP68/Zi7cy6WH1iODUc3gKDveJeutbqif8P+GJowFPWj65sJ4Q8AHYUQmWYKYdTBAnEYRPQSTH7R3ezO3Y20Q2k4ePYgss9mIzs/G7nnc1E7sjbiouIQFxWH5lWao1e9XoiNiFVR5TEAVwkhpCYFMNajSiJujhQcwcqsldh9ejdy8nOQk5+DE4UnUL1C9T/vrYaVG+KmK25SNTWYAAwQQvCuBg5CuUCIKATAlQD6AWgHIM71rzqAUwByAByGthvtMgD/E0JcUB2HLyGi5tDa2xpAvOtfLQAnAWQDOARtC/flAH71dDKf6/p9BGCIxWGrpgTAQag/tpYA5ALIgta7+VAIYekcUyKqAKAngEQADQE0AFAf2sI19/27G9o6nm+EEIbOencNW/YC0AhAHde/CFcdh6DdOz8C+FkIUWK4QX/Vp1QiPmaMEGKWt0Sua9oTQAKA2q5/FaB9ZjnQrukPANaruKZ2Q0Qx0NrbAn89a6sCOAGtvTkAtgJY7doF3JkQURMiepOIskmO40T0ARG1srsNMhBRbSJ6noi2S7b3ABG9TkRNPZQdQURfSZYbLJwn7X5pacFn2oOIPiKi0xLx5BHRQiLqqrOOuqTdN5sk6jhERLOI6HoFbRRE9KJE3U7gWS9tuoKIXia57+IRInqfiHqRJla/gYgqEdEYIlpJ2vdBDwVEtJSI7iHtB5IzIKI4InqbiIokPryyKCai94iont1t8gQRVSai50h7cJihiIj+Q0S1yqmnAhHNN1lHIJNPRLcp+kzbkBphf0lEV5VTR10i+jcRnTNZxyoi6miyvYKIxpuMw1fsI6Ie5bSjERG9Q/ofouXxDRFdY+aa+gLSflj+jYgOm2xvJhENJ220w9YGDSCtB6GSAiK619aGlQNpv1aOKG7vGSK6q5z6Qkl76DDl86SJzzOCtN5gscJ4SohoChGFlqrnbtKEp5I5RBRttO2l4jL7w89XfE7acI1bgKNJe1aoZD4RmZpBYhVE1I2I9ihu769E1NqOxoQQ0WuKG3Mp/yEitYsbDELaDfswqX3QXMp0IipzqTdpvxbM9ngCmZsNfKY1SPvlaRWriaghEc22sI7fiKiByXu7K2m/SP2BnUR0DRF9YmEdO4iohZlrqhoiup/M97LKI5eI+hiNTX6FmPaQew/ASKOVSpAObeZFrg/qKhPSxkffBPCAD6r7CsAtQojLXkS7buo5ALr4IA5/IxtAG70b65E26eELAE0sjUqbAGD1+PoxaN+R740WQERVAcwCcIeyqPybXACDhRAr7AzC9ax9HdY/e0oAjBNCSG98KjUG5nqYvg3fyAMAkgB8Ra6uq008Dd/IAwBuAvAOlfFSTwjxO4CrAdwPbTYb8xfxAF7Qk5C0d04rYb08AN9Mk68J4AvyMCnDG0KIU0KIwQB6Q5stGOzEAEglIqmD2VXikseH8M2zJwTAa0Q0XDaj1A1ORPdBE4iv+QHATb7uiZDBPaoU8LgQ4pXy/khE1QD8A8DDABw5ZmsDRQAShBAHyktA2pDoagDX+Swq37EDQFchxB9mCiFths7d0Kb6NlIRmB9zAcDtQoglvqy0lDwG+7JeAIUAugshNujNoFsgpL1s+QXaPHU78KlEiKgRgC0ADG3WY7Z6aKu5v/OYiKghgO0AKvoiKD/gDSHE38v7IxHNhCbeQGU5gH6e1hnpxfUQuw3APQB6IHj3zbsAYJAQwrpdJUvhuu4fwb7hxGwAnYQQR/Qk1iUQ15DKSgA3mghMBT6TCBF9AnsX860DcLWXRYevAhjnu5AcTyGARmUtNCSidtD2GvOrOf8GuFn12D0RxUOTSQ8A1wNQsm2BH3EBwB1CCEtHI1w95I8B3G5lPTqYJYQYoyehXoEkQ1s17gQslwgRXQngJ6vKl+B2IcSCsv7g6iH9Dvt6hE7lNSHE2Ev/TyL6AoD0bC0/ZDO0/aIs2QmZtOnJXaGdRW7P0Zj2UAxNIgutKNwlj0+gidpuLkA7rGuvt4R6BZIG7YW2bgiELw98icWZi5GRnYFThacQHR6NZrHNMLjJYNzW+DYz+y9ZKhEi+hKA1NQ2AuGrg1/h092fYv2x9ThacBSxEbFoXbU1BjQcgBFNRxjZ3XYntHMPLuuFyPaQss5mof2C9igsNrTrhm1UjqiM7YO2y2zwmA+gXukZWaSt4M6QrTs7Pxtvb3sbyw8sx67Tu0AgNKzcECn1UzCm9RjUq2R+zWsJlWD1odV/1lFwoQBxUXG4Lu463NroVtSKLHOdqTdGCiE+NB1cGbhmbK2Ctl2RfH4QNhzdgPl752PfmX3ILcpF3ai6SIpPws31b0aNijVMx1hUUoRPd3+KpfuXYuuprdr+b1G1cW3tazGi6Qh0qWV4ImMxtNlZZf6oM4pLHp8CuNVoGV9nfY0Fexfg1+O/4tT5U6heoTqurHklBjUehKR4qUe3m7lCiDu9JfIqECJqDGCPTM17cvdgzHdjsDJrZblp6laqi3k95qFbnW4yRZfGEokQUXUARyEx5nsg7wCGpQ3Dd4fLf2XRsHJDzE2ai+51usuG1FkI8fMlMXYGoPtFFwCMXjsa7/3+nmzdjuDZK5/FM1c+I5NlnBDizwO2jQxHzto2C+PXjUdeUV6Zf48Mi8SUzlPwWLvHZIq9iPVH1+P+b+/HxhMby/x7pbBKeLLjk5jQYQJCRWiZacohTQhR5uptM5iVx87TOzFkzRD8cvyXMv8eGxGLqZ2n4sFWDxo5/RIA8O3hb3FXxl3Ym1v+j+fbGt+Gd6971+iu08UAhggh5hsK8BLMymNP7h6MSB+BH478UG6a6+Oux5ykOWgQLbVkqBhATW9T4/UI5CkAz+utNfNMJq5JvUbXmcqhIhRvdX8Lo1uM1lv8pXwPoI9KiRDRSGjrLXSxO3c3uqV2w5EC7++cwkPCsaDnAvRr0E8mpOeFEBNLxSegrY/RvS/S9j+2o+38tigm/zzfqWqFqsgckomYCN2zuXdD64KXuL6gxyAxbj9h/QS8tPElXWkfaPUAZnXzusffZSzJXILBawbr6hEOaDgA82+cL/NQLQZQWwhxQjqwcjArj9TMVAxPH16ukEszsNFAfH7j57LSxKJ9izBkzRBdZ5Y0i22GVX1XGd1evhjAUCHE50Yyu3Hdm/MADDSS/7vD36Hf1/1wqtD7rP6aFWsiLTkNbaq1kaliiBBinqcEen5l657yeK74HHp/2VuXPACgmIpx79p78e7v7+qt4lKuAbBC8TqRAXoTFhYXov/X/XXJA9C61kPXDMXuXKmjnC+NJwUS8gCAp9c/7bfyAIBThafw+tbXZbIkQNuhFAC6Q0Iec3fO1S0PAHhr21t4c9ubMrFh08lNGJo2VPdw4pLMJRi/TmoD3VAAfaWC8oBZeSzctxC3rb5NlzwATQRjf7jsNZZHNp/cjBHpI3QfeLXz9E4kLU/CgbxyZ317IhTAJ0RkeKYUEUUA+AwG5fHt4W/RZ0UfXfIAgGPnjqH/yv7IPS/1WzvZWwKPAnG9MNO9ydicnXOw8/ROvcn/5L619zlJIlfrTfjW9rew7dQ2qcLPXjiLiRsmek/4F63prz2AwgDof7oB+OHID5aea+0rZmyegfwLUrtR/831n7qHcs4UncFjP8oPST25/kkcO3dMV1oC4eHvH0bBhQKpOmZumYktJ7fIZLlBqoJyUCGPwWsG40KJ3IkNr295XfeBaAAw7odxsvcH9ubuReKyRLMSkV6r4ZLH5wBuMVLxt4e/xc0rbtYtZDd7c/filU3lLi8ri97eEnjrgcQDqKy3thmbZ3hPVA5OkIirS1lbb3qj7xQW7F2g+5eDC/eJPKOh7fuvGyMPRCdy4twJfLr7U5ksya51MlfozfDJ7k90i6A0uedzMWenvlHPrSe3IiM7Q7qOEiqR7enUla7kEuyShxu9PcGdp3di9aHVhurYd2afGYmEAPiYiHS/XyslD0Or3I3Kw82sbbNQQrqPQalBRJU8JfAmEN0HF+eez8WOP3boTV4mDpBIbeicmXb83HFsPrnZUCXFVIxvD38rkyWeiCoDeE4m06J9i/D9EcNbJDmON7a9IZNcQNsGIl5vhhUHjS+f+OrgV/rSZelLZ6YOF6aOAbRbHgCQnp2uK52nyTp6cEtkf56hgzRDAHxEREO9JXTJYz5MyKPPl30MywPQnlubTm6SyVLH0x+VCWTHaXPycGOzRHQ/bA6dPWSwCo2ss1kyyeMAPA7tlENdFJUUYcL6CbJhOZpfj/+KH4/+KJNlNCS249h/xvhJvHrzmqnjQN4BmXdZuvdPeNcAAB8ZSURBVO/lS3GCPADtO3L2wlmv6TLPZJqqB9AkkrQsyYxEPiSiYeUlcG0RswDayaXSuOWh53p4Q/Ie9PhDxJtAdC9cOH3+tN6kXlEkEd1Db6XQvW1JQbHcGPalSI7XNgUgNRb19va3set04O2L98ZWqV5IdUgsdjtTdEY6Htm8ZuoopmKZdyeGfkQ5RR5ujhXIDykaRUFPZG5ZGxKWkkeKkYLX5qxVJg9Aew8ngUcHOHZ/m/vW3of//v5fo9mvgbaLrxGJOJFHAETqTZx7PhdTfp5iYTj2MX/vfEPvKRjvOE0eejE4FbdMMs9kqpDICPf/4ZLHQuiY0VQWa3PW4uYVNyuTByB9vTxOqXWsQADg3rX3skQ0pFY8vfTbSwH7kC0sLvTbBZFOxl/lAQA96/X0nkgCt0QMDo0JAHOIaCQRVYS2m7ehKdVWyKNmxZroUL2DTJZsT390tEAAlogsWWezTM2G8wfe3v62zEwSxgv+LA8AaFmlpdHtOspFgUQ+gLbQ2dD+a9/kfKNcHgAwpvUYhAjdj/18AB7fTTheIABLRIZJGyZJrzHwNzLPZOKLA1/YHUZA4O/ycDP96umoGKr2VIP9efvNSqSjkYzf5HyDviv6KpdH09imslvvrPV2NIBfCARgiehh08lNmLtrrt1h+ATZ1d/M5QSKPACgQ/UOeP/69yEU79ZvUiLSWCWPahWqIbV3KqLDo2WyLfeWwG8EAmgSMTH+HfASefzHx4NmaOfrg19jT67UHp9MKVTI447VdzhCHm6GJAzBf6//r2US2Xdmn9JyL8VKeazuuxotq7SUzepVIMa2vLSR0Wu1jRdHtRhlJLtbIjcJIYzPp3QgK7NWml5QBQBxUXFGtxCXgohkFzRdnB+EWdtm4ZWuUlszMFAnDyfur3ZP83sgIDB67WilP6b25+1H0rIkpKeko1Fl9Sf9ut95yG7H4g23PDrWkB5NWyuE8DoVze8EAiiRyAoi6hMoEimhEjz+4+OmywkVoViTvMbILxVD9Pyip+EtKABg9o7ZmNp5KiLDdM9wDnoCWR5u7m5+NwBYIpHEZYnISMlQKhEr5bEmeY3srCs3ujbs86shrNKYPN/iWhhfbOg45u6aa+rXvJvRLUb7TB4AMKnTJFP5TxaexLw9HnebZkoRDPJwc3fzu/He9e/JzDjSxYG8A0qHszKyMyyRR/WK1c3IY4UQQtdeS34rEIAlAgAFFwowaYO5BzEARIdH47nOUlttmea6uOuMHLB1EZIr04OWYJKHm7ua3WWpRDwdWqWHjOwM9P2qryXyWN13tVF5nAfwpN7Efi0QgCXy2pbXZPfVKpPx7cejdqTujYiVMbGT1Nb2l/Hz8Z+x/uh6RdEEJsEoDzd3NbsL71//viUSSVqeZFgiVspjTV/DPQ8AuF8I8ZvexH4vEECbnfX+jveNZvdbiRw7dwwvbnzRdDnxUfF4tN2jCiKSp1e9XmbOqAbAU3o9EczycHNnszstk0jicvmeSHp2uqXyaF+9vdEiXhVCfCCTISAEQiCM/ma0aYlA4uwTJzDl5ymyJ4yVydSrpiIqTPc+ksqZ2NFcL+SzPZ/hxDllp7cGDCyPv7iz2Z2Yff1s5RI5mHdQSiLp2elI/irZifJIBfCEbKaAEAigTCKGtwD2NbtO78Lb2982XU7bam1xV7O7zAdkgpQGKWa63DhXfM7M5x6ohIDlcREjm420VCLe1iVZKY+05DQz8lgKYJAQQvrDDhiBAEok4vuXAAaZsH4CikqKTJczres05V8oIzzd8WlT+d/a/lbQLKLUiQDL4zKslEjS8qRyJZKWnWaJPGpUrIG05DS0q9bOaBGpAG4XQug7TP4S7H9yKEaBRBzP/w7/D4v2LTJdTq96vdC7ntdjj33CrY1vRauqrQzn35u7V/bEPqYMAlkebkY2G4kPEj+wpiey7PKeSFp2GlK+SrFEHmuS15iRx2JoPQ9D8gACUCBA4Evk8XXmFw2GiBBM6zpNQTRqEBB4soPu2YNlInnkLXMJC/YuCHh5uBnRdIQlEsk6m3WRRBwujzvMyAMIUIEAgSuRBXsX4IcjP5gu585md5q5+SxhSMIQJMQkGM7/1cGvLN+vKFBZsHcBBq8ZHBTycDOi6QjMSZxjmUTe3/G+ZfIwOWy1CJo8TI+BO0Yg49qNU3qyGBB4EikqKcKT6839SgeAqLAoTO08VUFEagkVoZjQwfg57iVUglnbZimMKDiwSh4Nohvg1ka3Ki1TNcObDrdMIqO+GaVcHjUr1kRachraVmtrtIiFAAarkAfgoL2wGlVuhIyUDCQuS8SBvAPKynVLBNA2WvNn3tr2Fnbn7jZdzrh241C3Ul0FEalnZLOROH3+NEpg7IV49QrVDdf9QKsHcPzccUN5K4f71QzwP7FSHhkpGfjP1v8oLdcLhwBI39jDmw6HEAIj00c6eiJGzYo1sSZ5jRl5LAAwVJU8AAcJBGCJeOL0+dOY8ov5c85rR9bGE+2lp3v7jPCQcIxrN86WuiUP2/F7rJZHw8oNlZarg/4A5gKQno0xLGEYAODO9DsdOYzn7nm0qdbGaBHzAQxTKQ/AQUNYbtwS4eGsi3lx44uGfx2X5tkrn5U9VIYJQAJQHgBwBMANALYayTwsYRjmJM1BqAhVG5VJFMjjcyjuebhxnEAA6yUye8dspeVazcG8g3ht82umy2lZpSVGtxitICLGnwlQeQAAhBBuiWwxkn9YwjDMTZrrGIkokMdn0Hoelpz85UiBANZKZNQ3o/xKIhN/mohzxedMl/PS/72EsBBHjVoyPiaQ5eFGCHEUJiQyNGGoIyRSs2JNpKekm5HHPADDrZIH4GCBAJpE0pPTg1oiG09sxEe7PjJdTmJ8IlIapCiIiPFXgkEeboQQx6BJZLOR/EMThuLDpA9tk0ityFpIT0lH66qtjRbxKYARVsoDcNhL9LJoHNMY6cnpSFqepPzF+qhvtBMN3SeYOREV55wLCGVHvxIIB/IO4Ej+ERSWFIKIQKC//rP0f7f4/5OlZ72eHres35O7x/D2MKEiFE1jmxrK6wuCSR5uhBDHiKgHgNUApBdNDEkYAgAYkT7Cpy/Wa0XWQlpymhl5fALgTqvlAfiBQIDglcjyA8tNHfnqZkjCEFxZw9C2SH9y+vxpTPttGubumouDeQdNx+Rr6lWqh0FNBnlM0/vL3l43xCuP2pG1cXjEYUN5rSYY5eHmEolI7zboa4kokMfH0OThE+M5egirNG6JBMtwVlFJER770fy00oqhFfGvLv8yVcZ3h79D88+a4/lfn/dLeQDagVkRIRF2h+FzglkeboQQxwH0AKD7oKTSDEkYgo9u+Mjy4axakbWQnmxq2Ooj+FAegB8JBLBeIh/s/EBpuWaYtW0Wdvyxw3Q5/2jzDzSIbmA4/9qcteixvAeOFBwxHYtdxEXF4d6W99odhs+Zv3d+0MvDjRDiBDSJbDSSf3CTwZZKxC0PExuKfgjgLl/KA/AzgQB/SeSK6CuUlksg3JNxj2MkoqpH1K1ON8N5T5w7gVtX3YrzJab2W7Od8e3Ho2JoRbvD8Cnz987HkDVDWB4XUwTA8N4ilcMrWyaQCqEVzN6j3/taHoAfCgTQJJKRnBHQEnmig5rV4k9veNrwQ+Sfv/5TyeJFO6kdWRv3t7zf7jB8CsvjcogoBsBXAK4xkn/5geUYuHKgZT+m3OeJGD1jHcAsIvL5je6XAgECXyKDmwzGNbUN3esXsfnkZry7Xf6gxaKSIszZOcd0/XbzWPvHEBkWaXcYPoPlcTml5HG1kfzL9i/DrSut74kbPWO9FG8R0QMqY/KG3woECHyJzLh6BgSE6XIm/zQZp8+flsqz6eQmnCo8ZbpuO6lZsSbGtBpjdxg+g+VxOUQUC+BrGJTH0v1Lcduq23w2jCt7xnoZzPKlRPxaIEBgS6RLrS4Y1nSY6XKOnTuGqb/Ibd+ek59jul67ebTdo4gKi7I7DJ/A8ricUvLoaiT/0v1Lcfuq233+DlDvGesemEVED6qMqTz8XiCA9RKxcyjnhS4vKHkIvr7ldamt4KtGVDVdp51Ur1gdf2v9N7vD8Aksj8shoioAVgL4PyP5fd3zuBRvZ6zr4E0isrz7HRACAayVyN0Zd9smkXqV6inZZvx8yXmpdSVtqrXx63UTY9uODYpdh1kel1NKHl2M5E/NTMVtq24zvCuBKso7Y12CN6yWSMAIBLB2iq+dEhnfYbySA6BSM1ORlp2mK21sRCySGySbrtMOqlaoiodaP2R3GJbD8rgcIqoKYBWAq4zkX5K5BLevvt12ebi59Ix1A7xBRJZ1xQNKIADQJKZJwEmkUlgl/Osqc6vJ3Yz9fqzuvbWmdp7ql7v3PtL2EcRExNgdhqWwPMrELY/ORjIvzlyMQasHOUYebtwSMXEa6X+skkjACQQITImMaDYCnWsa+l5cxKaTm/Df3/+rK22rqq0wvet003X6kioRVfBwm4ftDsNSWB7lshiAoU3fFu1bhDtW3+E4ebjJOpuFpGVJZiXyd5UxAQEqEMB6iczdOVdpud4QEJhx9QwlZU36aRJyz+fqSvtQm4cw/erptp+NoJeH2z6M2IhYu8OwDJaHR5oYybRo3yLcsca58nCjoCfyumqJBKxAAGslMmvbLKVl6qFbnW64vfHtpss5WnBUalrv2LZj8cOAH3BD/A1K1qVYRWxELB5p+4jdYVjKqG9GsTwU4pbHhRK1O583rNwQs7rNUj4R5dDZQyokouwFof8NcEvilkjiskRknc2yOxzTvPx/L2Pp/qUoLC40Vc6/t/wbD7R6AE1i9P1ou6rmVViTvAZZZ7Pwv8P/w5GCI7hQcgEhIuSifwLir/8ND38r9ff9efsx7odxptoDaBtHVomoYrocJ0OQPwfFE8Esj4X7FmLwmsHK5dGociOkp6SjQXQD1K1UV/l0YLdE0pPTjZ5B828iEkKIf5uNJeAFAmgSyUjJCAiJNKzcEGPbjsWLG180VY57Wu/iXoul8tWrVA93NLnDVN2Xct/a+0yXERMRg7FtxyqIJngIZnks2LsAQ9KGWCKP0kdxpzRIwcJeC5VvhXLo7CEkLU8yI5GZLonMNBNHQA9hlcYtkXqV6tkdimme6viUx5P19LIkcwnSs9MVRGScA3kHlExKeKj1Q6hawb8XP/qSYJbH/L3zLZFH45jGF8nDTXL9ZCzstdCy4axdp3cZLeI1IjI148RfBWLoigWKRCqHV8Y/r/qnkrLG/qB/Wq8VvLjxRdO/zCqHV8a4duaHwIIFBfLw203SPt/7OYamDbVGHsmXy8NNcv1kLOq1CBVCKyitNzs/W4VEDL849FeBzADwqpGMgSKRe5rfgw7VO5gu57cTv+G9He8piEierLNZeO9383X/vfXfUa1CNQURBT4K5PEqgE/VReQ7Pt/7OYalDVMujyYxTXTtgtG3fl8s6mmdRHae3mm0iBlGeyL+KhAC8DiCWCIhIgTTr1azRmPihom6p/Wq5KWNL5nufUSHR+PRdo8qiiiwUSSPxwHFb/J9gKXySNG/hdLN9W/G4l6LLZFI0rIkMxJ5jYj6yWbyV4FACBH0EkmKT0L/hv1Nl3O04Cie//V5BRHpJyc/R/eCRk+MaTUG1StWVxBRYKNKHq7vnV/x2Z7PMHSN+mGrhJgEQ8+QPlf0capEPiYiqQPZ/VYggBqJpKek+7VEXun6ipKXczO3zDRzBoE0L//2Ms4VnzNVRqWwSnisvfmNJgOdYJbHvD3zMCxtmPK1M0bl4abPFX2wpNcSpw1nRQNY6toGXxd+LRDAvEQSYhL8WiIJMQn4exvzi0sLiwvx+LrHFUTknSMFR/D29rdNl/NgqwdRs2JNBREFLsEsj093f4rhacOVy6NpbFNkpGSY3uD0pituQmrvVLNnoV9GTn4OEpclYscfO4xkbwzteaqLgFgHIoQgInI3WnpA3C2RpGVJfrlOZHKnyZi7c67p88sX7VuExZmL0bZaW0WRlc3MzTNRcKHAVBlRYVF4vL1vhOevBLM8Ptn9CUamj7RMHvFR8UrK612vN1J7p6L/1/1N98hLk5Of8+c6keZVmstmH0tErwshjnhLGBACAYJbIrERsXiu83P423fmN9wcuHKggois54FWD6BWZC27w3AsCuQxHSyPi2gW2wzpKenK5OGmV71eTpNIFICJALxueeL3Q1ilUTWcpeLsDV9zf8v70bqq1PsvvyUyLBLj24+3OwzHokgej/mjPD7e/bFfycNNr3q9sLT3UkSGRSotNyc/B4nLDQ1n3UVEXl/QBJRAADUSUTG+6WtCRaiyab1O5/6W9ytZiR+IBLM8Fu1bhDvT71Quj+ZVmisdtiqPnvV6WiKRw/mHkbg8EZlnMmWyRQO43luigBMIELwS6VWvF26uf7PdYVhKxdCK3Psoh2CWx9ZTWzEifYQl8khPTkdcVJzScsvjxro3YlnvZZZIJOXrFNkhshRvCQJSIEDwSuTVrq/65SmCerm35b0++zL7E8EsDwB49IdHkX8hX2mZLaq0QEZyhpn7zdCWLz3q9rBEIltObsEbW9+QydLTW4KAFQgQnBJpUaUFHmz1oN1hWEKF0Ap4ov0Tstns2+jLRwS7PPbk7sHXWV8rLbNllZZIT05Hnag6RouYBqAlgO1GMveo2wPLb1qOqLAoo/WXiaRAriAijwcABbRAgICRiNRRac9e+WxA7kw7usVo2c/hewD+NaVOkmCXBwCsPrRaaXktq7REeoopebwM4AnXNNgkANuMFHJD/A3KJbLvzD7syd2jN3kUgMqeEgS8QICAkMibkPglXa1CNUzuNNnCcHxPREgEJnSYIJvtOfjhvk16USCPGfBzeQDAwbyDyspqVbUV0lPSzUzSeAnABPc1dUnkBhiUSFJ8knKJSL5M92hRbwI5o7eWyuEeRaU6v+643CiZ4pusbopvdFi0TPIfALwjk+Fvrf+GZrHNpGJyMqNajJLdLeBHAKsgMQ5tptemdzdgVauOFcnjUYPy0H0cptn2ql6l7YlWVVshPdmUPF4E8OSl17RUT2SrkUKT4pPwxU1fKB/O0kmopz96E0i23lrMHkwjeW75ISN1mJVI09imyiRSL1rqYZgDYDIA3VvmhoeE45Wur8iG5UgiQiLwZIcnZbM95/q8va6mdWPwZDcAQEJsgq508ZXMTwW1WR6AxHPBTHvDQsJQM9L7VjUqDsVqXbU10pPTzSxO/ReAp8q7pkKIo9B6IoYkkhifiC/7fIlKYZWMxvcnktfL4/fHm0By9NZSO7I22ldvrzf5RVQKq4Rral8jk0X3DXwpTpBIREgEro/zOsW6NDlCiGMApspkSmmQghvr3igVmxO5u/ndsj8w1gNwv1XVLZABDQfI1HER/Rvo2xU5MS7RcB2AI+QBSHz/zLS3e53uCBUefwAD0NZPmKF11dZIS04zI4/nAUz0dk1LSWSLkUquj7vetESaxDRBk5gmepMXwUsP3qNAhBDnAOjeYGlMqzF6k17E3c3vlu2qGhYIYL9EhjcdLjtk5xb56wB0vwEDgOlXT9f1JXQq4SHheLKjdO9jSqkvs+7rdUvDW4zsG4T60fUxNGGorrTX1rnWcE/HIfIAJEYAWlZtiS61uhiq5M5md+pK1yC6AZLrJxuqo021NkhPMdXz+CeASXqvqVmJXBd3nSmJ/KPNP2SS53hrl56X6Gv11nZP83ukb5a4qDhMvlLqhe/PQog8qUrKwC6JVKtQDc91fk4my0/u9gohCgFI7V/etlpbjGoxSiaLoxjRdAQaRDeQyfITgC9L/e8vy0t4KeEh4Xin+ztS62hCRAjeue4d3XP2Q0Uopv3fNN3lu3GQPABgEwBdh2sICLzS9RWECLn5Op1rdsbwpsN1p3+l6yuIDpd6r4i21doiLTnNzI7OUwFMlr2mrtEEUxJZcfMK6fZ2rNER97e8XyZLurcEej7VpXprCwsJw+Jei5EQo288uGqFqkjtnSr7AS6RSewJVRLR+4CrFFYJC3sulH0ZvPiS/50KHR9saaZ2nmp6koMdhIpQPNXxKdlsUy75Qv8C4LDezNfFXYf3rntPl0RCRSje7v42etfrLRVg/4b9MbHTRN3pG1Vu5CR5QAjxByTuwe51ukttsxMfFY9FPRdJ9ZybV2mOT3t8qnsk48oaV2JN8hoz8pgC4Bmj17SURDYbyd+9Tnes6LNC98SPxjGNkdorVfb8keXeEugRyBeQmEIaHxWPdbesw6DGgzym61anG9bfsh5X1bxKb9FulAkEUCORDQM3IKWB51X/7au3x3f9v0NifKJsFRe11xXvOEhMT60VWcvIg9h2hiQMkRmvBTRZXHTTCyFKACyTKWRks5FY03cNWlRpUW6aZrHNsKrvKoxuMVqm6D+Z2nkq3uz2pteZNb3r9cb6W9abkcdrUCiPUqTKJH64zcP4+IaPERvh+awi93NB8p0XACC5fjK+SfnG46aioSIUD7R6AN/2+9aMPJ4TQhiWhxuXRHrAoES61emGdQPWeX1/PLDRQKwfIH1NLwBY6S2Rx1WGbohoGQDpQcZfjv+Cz/Z8hp+O/YRj546hWoVqaFOtDQY2Goik+CQIfdWXZiOATlbMW3etuJwGA1vBu/n+yPeYt2cefjzyI46fO44qFaqgddXWGNhoIPo16GfkXcRPALqU1V4ieheA7qdXYXEhhqYNxdmis7Ix2MZr17zm8SFeBgOEEJc92FzHdG6GzvvdTVFJEVYcXIHUzFTsPbMXIQhBo5hG6Fu/L5LrJyM8JFymuDLJzs/Gm1vfxBcHvsCe3D3Iv5CPOlF1cH3c9bir2V24sd6NRr4nbl4DMM6i70tdAJmQPBLixLkTeHPbm1i2fxl2nt6JvKI81I6sjW51umF40+FIbpBspr0AgGIqRmpmKpZkLsGu07tQUFzwZx1DEoboHiEph2eFEFJj0N4gohoA1gBoZ7SMtOw0LMlcgk0nNuFU4SnUqFgDXWp1waDGg9CxRkcjRc4TQgzxlkivQNoC+E1vegu5SQihds+CUqiQiGJuFEKsKesPRFQbwC54WSkaRHj8cUFEcwCM9G1I8hDI9APUhWXycENErwMwdRymwvb6gmeEEFOsKFiFRBRSDKCVEMLrubi63mwJITYD+MBkUGZJg44ulRnMDmcpZmV58gD+XJz0gg/jcTrPeXlYPgPJLWHswF/k4WIqAFMTWvxIHpOtkgcACCGOQxvO+s2qOiSYrUcegESPwtVl3QzAjk2WzgPoKoT41ReVOaAnUght6GqTp0REFAlgBwD5AePA4jcAHb09MInoMWifayDjK3kAAIjoaWhTWQOZSUIIn7SRiKpD64kYW1RnnpMA2gshdO0hp3tunRDiEIBB0Lo3vuY+X8kDcERPZLQ3eQCAEKIAgP+9HVePt96Hm1cBfGx1MDbiU3m4eAnAVz6sz9c87St5AIAQ4gTs64kUA7hdrzwMQURjyLe8bFljvLdVENErPm7vi5IxhhDRTz6O0Un8RES6fwgRUSQF5vWaQV623rYKIoolom02t98KpFewKrym1YnoVx+392++atxkHzXoXSKydRk1aRJ51sntJaJORFTooxidxHnSJnjIXq8aRLTW5thV8hLZJI9S17QJER2w+TqoopiIHrHzerquaXUi+t5HbX6BfHkPEdHtRJRvUWOKiegRnzbIC0Q0yOL2/sNMe4noPoticzKGh++IqAIRfWhhbO8TUUci2mxhHeeIyDEzy4ioNln7wCsioidIu7ZW8QcRya0MtRDS7tPZFrb3PBHdY1fjOpL6rushIupjS4O8QERXEtEuxe3NIqJeCmITRDRNcWxO5nUiMnV2L2nX7BEiOq0wrjwiGlGqjkpENFdh+W4OEpH0KlyrIaKKRPSBBe09QERXl6rndiI6pbiOjUTkuDMQSLtPHyXtYa+SHCK6zu7GhRHRKNIe/GY4TUQTiMiWTe/1QkThRPQgER022d4/XO1VevAxEQ0lorMmY3MyF4joAcXXrCYR/cdVtlEKXWVcNiOOtAdAXyL62WzjSbtvniQi8/t6WwgRXU9E6xW0N5+0IbrLDlwhojgimk7mRwb2EtEwsnm43BtE1JiIPjbZViKiM0Q0iYjkNtOyEiKKIu3BupK0rqZevietW1rd7jbIQNovy4eJKIO0ISg9lPiivUSUQNov9FyJz8Hp5BPRm0Qkv12u/uvWhLQv1iaJuH4nopdJm+burXxBRANIu2dkZbWLiP5JZTxInYqrvbcTUZqB9h4jbWKA19OdiKiW69pslyi/kIi+IqLRRBThi+uhCiLqQFqv9oTkNd1J2rsOw3u4XIol7xiIKBZAHwCtANQFEA+gFrQ5xtmuf7sBfCmE0H3miFMhTQZ9ALSBdgRkHICaAE5Aa+sh/NVe3Rv7KYgrGkBvAE0BNIb2GfgTZwEcBfArtGun+2gBs5AmqusA1AfQwPWf56FtzHgE2ue5Ugixz2D5VaF9Nr0BNIR239QBUNFVR47rP3+EtqHpDn8+epY08d0M4CZo19P9XKgA7bmQ4/r3PbT9934WQkgvGSCiBtCuaWv8dU2joX1m7mv6C7TPTvpkUydB2hDuNQD6AkjAX8+eKtC+N+5r+huAVCHE76pj+H8bhK1cLwdCJQAAAABJRU5ErkJggg==;" parent="tZlGh6HrKuFJbto6NnXd-11" vertex="1">
          <mxGeometry x="29.159999999999997" y="42.129999999999995" width="101.67" height="76.25" as="geometry" />
        </mxCell>
        <mxCell id="TLUjXwK4e5CFKx_HIJDN-15" style="edgeStyle=orthogonalEdgeStyle;rounded=0;orthogonalLoop=1;jettySize=auto;html=1;exitX=0;exitY=0.25;exitDx=0;exitDy=0;entryX=0.996;entryY=0.272;entryDx=0;entryDy=0;entryPerimeter=0;dashed=1;strokeColor=#FF0000;" edge="1" parent="1" source="tZlGh6HrKuFJbto6NnXd-19" target="tZlGh6HrKuFJbto6NnXd-21">
          <mxGeometry relative="1" as="geometry" />
        </mxCell>
        <mxCell id="tZlGh6HrKuFJbto6NnXd-19" value="" style="rounded=1;arcSize=10;dashed=1;strokeColor=#ff0000;fillColor=none;gradientColor=none;dashPattern=8 4;strokeWidth=2;" parent="1" vertex="1">
          <mxGeometry x="156.34" y="180.5" width="189" height="189" as="geometry" />
        </mxCell>
        <mxCell id="tZlGh6HrKuFJbto6NnXd-9" value="Public subnet" style="points=[[0,0],[0.25,0],[0.5,0],[0.75,0],[1,0],[1,0.25],[1,0.5],[1,0.75],[1,1],[0.75,1],[0.5,1],[0.25,1],[0,1],[0,0.75],[0,0.5],[0,0.25]];outlineConnect=0;gradientColor=none;html=1;whiteSpace=wrap;fontSize=12;fontStyle=0;container=1;pointerEvents=0;collapsible=0;recursiveResize=0;shape=mxgraph.aws4.group;grIcon=mxgraph.aws4.group_security_group;grStroke=0;strokeColor=#248814;fillColor=default;verticalAlign=top;align=left;spacingLeft=30;fontColor=#248814;dashed=0;labelBackgroundColor=none;strokeWidth=2;fillOpacity=100;" parent="1" vertex="1">
          <mxGeometry x="-134.23" y="195" width="174.23" height="150" as="geometry" />
        </mxCell>
        <mxCell id="tZlGh6HrKuFJbto6NnXd-7" value="" style="outlineConnect=0;dashed=0;verticalLabelPosition=bottom;verticalAlign=top;align=center;html=1;shape=mxgraph.aws3.application_load_balancer;fillColor=#F58534;gradientColor=none;" parent="tZlGh6HrKuFJbto6NnXd-9" vertex="1">
          <mxGeometry x="44.22999999999999" y="40.5" width="85.77" height="89.5" as="geometry" />
        </mxCell>
        <mxCell id="tZlGh6HrKuFJbto6NnXd-14" style="edgeStyle=orthogonalEdgeStyle;rounded=0;orthogonalLoop=1;jettySize=auto;html=1;" parent="1" source="tZlGh6HrKuFJbto6NnXd-13" target="tZlGh6HrKuFJbto6NnXd-7" edge="1">
          <mxGeometry relative="1" as="geometry" />
        </mxCell>
        <mxCell id="tZlGh6HrKuFJbto6NnXd-13" value="" style="html=1;verticalLabelPosition=bottom;align=center;labelBackgroundColor=#ffffff;verticalAlign=top;strokeWidth=2;strokeColor=#0080F0;shadow=0;dashed=0;shape=mxgraph.ios7.icons.user;fillColor=none;" parent="1" vertex="1">
          <mxGeometry x="-340" y="235.5" width="88" height="88" as="geometry" />
        </mxCell>
        <mxCell id="tZlGh6HrKuFJbto6NnXd-15" style="edgeStyle=orthogonalEdgeStyle;rounded=0;orthogonalLoop=1;jettySize=auto;html=1;" parent="1" source="tZlGh6HrKuFJbto6NnXd-7" target="tZlGh6HrKuFJbto6NnXd-3" edge="1">
          <mxGeometry relative="1" as="geometry" />
        </mxCell>
        <mxCell id="tZlGh6HrKuFJbto6NnXd-18" style="edgeStyle=orthogonalEdgeStyle;rounded=0;orthogonalLoop=1;jettySize=auto;html=1;entryX=0.5;entryY=1;entryDx=0;entryDy=0;entryPerimeter=0;startArrow=classic;startFill=1;" parent="1" source="tZlGh6HrKuFJbto6NnXd-17" target="tZlGh6HrKuFJbto6NnXd-7" edge="1">
          <mxGeometry relative="1" as="geometry" />
        </mxCell>
        <mxCell id="tZlGh6HrKuFJbto6NnXd-17" value="" style="outlineConnect=0;dashed=0;verticalLabelPosition=bottom;verticalAlign=top;align=center;html=1;shape=mxgraph.aws3.certificate_manager_2;fillColor=#759C3E;gradientColor=none;" parent="1" vertex="1">
          <mxGeometry x="-73.87" y="390" width="53.5" height="45.86" as="geometry" />
        </mxCell>
        <mxCell id="tZlGh6HrKuFJbto6NnXd-6" value="EC2 instance" style="points=[[0,0],[0.25,0],[0.5,0],[0.75,0],[1,0],[1,0.25],[1,0.5],[1,0.75],[1,1],[0.75,1],[0.5,1],[0.25,1],[0,1],[0,0.75],[0,0.5],[0,0.25]];outlineConnect=0;gradientColor=none;html=1;whiteSpace=wrap;fontSize=12;fontStyle=0;container=1;pointerEvents=0;collapsible=0;recursiveResize=0;shape=mxgraph.aws4.group;grIcon=mxgraph.aws4.group_ec2_instance_contents;strokeColor=#D86613;fillColor=none;verticalAlign=top;align=left;spacingLeft=30;fontColor=#D86613;dashed=0;" parent="1" vertex="1">
          <mxGeometry x="406.17" y="200" width="170" height="150" as="geometry" />
        </mxCell>
        <mxCell id="tZlGh6HrKuFJbto6NnXd-2" value="" style="outlineConnect=0;dashed=0;verticalLabelPosition=bottom;verticalAlign=top;align=center;html=1;shape=mxgraph.aws3.android;fillColor=#8CC64F;gradientColor=none;" parent="1" vertex="1">
          <mxGeometry x="446.17" y="230" width="87.5" height="100" as="geometry" />
        </mxCell>
        <mxCell id="tZlGh6HrKuFJbto6NnXd-16" style="edgeStyle=orthogonalEdgeStyle;rounded=0;orthogonalLoop=1;jettySize=auto;html=1;" parent="1" source="tZlGh6HrKuFJbto6NnXd-3" target="tZlGh6HrKuFJbto6NnXd-2" edge="1">
          <mxGeometry relative="1" as="geometry" />
        </mxCell>
        <mxCell id="TLUjXwK4e5CFKx_HIJDN-17" style="edgeStyle=orthogonalEdgeStyle;rounded=0;orthogonalLoop=1;jettySize=auto;html=1;exitX=0;exitY=0.25;exitDx=0;exitDy=0;entryX=1;entryY=0.25;entryDx=0;entryDy=0;fontColor=#FF0000;dashed=1;strokeColor=#FF0000;" edge="1" parent="1" source="tZlGh6HrKuFJbto6NnXd-20" target="tZlGh6HrKuFJbto6NnXd-19">
          <mxGeometry relative="1" as="geometry" />
        </mxCell>
        <mxCell id="tZlGh6HrKuFJbto6NnXd-22" value="&lt;font color=&quot;#bf4b3f&quot;&gt;Security Group&lt;/font&gt;" style="text;html=1;strokeColor=none;fillColor=none;align=center;verticalAlign=middle;whiteSpace=wrap;rounded=0;fontColor=#F66151;" parent="1" vertex="1">
          <mxGeometry x="-100" y="150.5" width="100" height="30" as="geometry" />
        </mxCell>
        <mxCell id="tZlGh6HrKuFJbto6NnXd-23" value="&lt;font color=&quot;#bf4b3f&quot;&gt;Security Group&lt;/font&gt;" style="text;html=1;strokeColor=none;fillColor=none;align=center;verticalAlign=middle;whiteSpace=wrap;rounded=0;fontColor=#F66151;" parent="1" vertex="1">
          <mxGeometry x="200.84" y="364.5" width="100" height="30" as="geometry" />
        </mxCell>
        <mxCell id="tZlGh6HrKuFJbto6NnXd-24" value="&lt;font color=&quot;#bf4b3f&quot;&gt;Security Group&lt;/font&gt;" style="text;html=1;strokeColor=none;fillColor=none;align=center;verticalAlign=middle;whiteSpace=wrap;rounded=0;fontColor=#F66151;" parent="1" vertex="1">
          <mxGeometry x="446.17" y="364.5" width="100" height="30" as="geometry" />
        </mxCell>
        <mxCell id="TLUjXwK4e5CFKx_HIJDN-1" value="&lt;font style=&quot;font-size: 40px;&quot;&gt;Stack&lt;/font&gt;" style="text;html=1;strokeColor=none;fillColor=none;align=center;verticalAlign=middle;whiteSpace=wrap;rounded=0;" vertex="1" parent="1">
          <mxGeometry x="20.000000000000057" y="510.5" width="60" height="30" as="geometry" />
        </mxCell>
        <mxCell id="TLUjXwK4e5CFKx_HIJDN-2" value="" style="rounded=1;whiteSpace=wrap;html=1;fillColor=none;strokeWidth=3;" vertex="1" parent="1">
          <mxGeometry x="120" y="470" width="500" height="100" as="geometry" />
        </mxCell>
        <mxCell id="TLUjXwK4e5CFKx_HIJDN-3" value="" style="shape=image;html=1;verticalAlign=top;verticalLabelPosition=bottom;labelBackgroundColor=#ffffff;imageAspect=0;aspect=fixed;image=https://cdn0.iconfinder.com/data/icons/long-shadow-web-icons/512/nodejs-128.png" vertex="1" parent="1">
          <mxGeometry x="150" y="485" width="70" height="70" as="geometry" />
        </mxCell>
        <mxCell id="TLUjXwK4e5CFKx_HIJDN-4" value="" style="shape=image;verticalLabelPosition=bottom;labelBackgroundColor=default;verticalAlign=top;aspect=fixed;imageAspect=0;image=data:image/svg+xml,PHN2ZyB4bWxucz0iaHR0cDovL3d3dy53My5vcmcvMjAwMC9zdmciIHZpZXdCb3g9IjAgMCAzMiAzMiI+PGcgZmlsbD0iIzgxM2NmMyI+PHBhdGggZD0ibTEyLjA0MiA2Ljg1OCA4LjAyOSA0LjU5djkuMDE0bC04LjAyOS00LjU5NHoiLz48cGF0aCBkPSJtMjAuNSAyMC40MTUgNy45NTktNC41NzV2LTguOTUzbC03Ljk1OSA0LjU0MnoiLz48cGF0aCBkPSJtMy41NDEgMTEuMDEgOC4wMyA0LjU4OXYtOS4wMDlsLTguMDMtNC41OXoiLz48cGF0aCBkPSJtMTIuMDQyIDI1LjQxIDguMDI5IDQuNTl2LTkuMDQzbC04LjAyOS00LjU4OXoiLz48L2c+PC9zdmc+;" vertex="1" parent="1">
          <mxGeometry x="232.5" y="480" width="75" height="75" as="geometry" />
        </mxCell>
        <mxCell id="TLUjXwK4e5CFKx_HIJDN-6" value="" style="shape=image;verticalLabelPosition=bottom;labelBackgroundColor=default;verticalAlign=top;aspect=fixed;imageAspect=0;image=https://upload.wikimedia.org/wikipedia/commons/thumb/9/93/Amazon_Web_Services_Logo.svg/320px-Amazon_Web_Services_Logo.svg.png;" vertex="1" parent="1">
          <mxGeometry x="320" y="494.5" width="76.67" height="46" as="geometry" />
        </mxCell>
        <mxCell id="TLUjXwK4e5CFKx_HIJDN-7" value="" style="shape=image;verticalLabelPosition=bottom;labelBackgroundColor=default;verticalAlign=top;aspect=fixed;imageAspect=0;image=data:image/png,iVBORw0KGgoAAAANSUhEUgAAAZAAAAEsCAYAAADtt+XCAAAACXBIWXMAAAsTAAALEwEAmpwYAAAgAElEQVR4nO2dd3gU1frHvycNEkJChwSkht4R+aGCJiIgkgCiIt0CNu71KqiICqhwvRYU5HoVy1UEG0oNoCgliehVAQtSpQcICR0JISGE5P39MbsaINmdM3NmZ3b3/TwPzy055T2zs/PZc+YUASagIKIIAJ0BXA2gBYDmAOoDiHb9CwOQB+AMgBMAdrn+bQGQIYTItiFsxg8gIgGgNYBu0O6tFgAaAYiFdm9FAiiAdm+dBrAXwA4A2wF8B2C7EIJ8HznDMOVCRLFENIqIviais2SOnUQ0k4iucj0wmCCGiMKJqB8RfUxER0zeW9lENJeI+hBRmN1tY5ighojauL7YBSa/2OXxOxH9g4gq2d1WxrcQ0RVENJ2Ijll0bx0mopeJKN7utjJMUEFErYjoMyIqsejLfSnHiGgisUgCHiJqQET/JaLzPrq3ColoFhHVs7vtDBPQEFENIvqIfCeOS9lPRLcQD20FHEQUQURPElG+TfdWHhE9RkThdl8Lhgk4iOgmIsqx6ct9KYuJqJrd14RRAxG1JaKtNt9Tbn4jopZ2XxOGCQiIKJKI/m3zl7os9hPRNXZfH8Y4RCSI6B6y7h2aUc4S0Ui7rw/D+DVEVJWI1tn8ZfbEeSIaYvd1YuQhohAimmHz/eONaUQUYve1Yhi/g4hqEdFGm7/AennE7uvF6Ie09x2f2H3T6GQu8XsRhtEPEdUlou02f3FlmWT3dWO8Q0ShRLTA7ptFknnEPRFHwh+KwyCiGACroa3yVVs2CIXFhThfcl510QAwhVgijoa02XNvALjVkvJh2SLzOwDMJJ795zh4NaiDcH1BZkOBPHbn7saSzCX45fgv2HpyK3bl7kLBhYI//14nqg4aRjdE22pt0ateL/So2wNVK1Q1W+0UIoIQYqrZghhLeAzA/WYLySvKw8qslVhxcAX25+1HTn4OcvJzcPLcSVSrWA1xUXGIi4pDo8qN0OeKPuhVrxeiwqLMVvt3aFujzDBbEKMONrqDIKLHAEwzmr/gQgHe/f1dzN4xGxtPbJTKGyJC0K9BP4xtOxbd47pDmLs1JrNEnAVpM+bWAgg1lB+ExfsWY/aO2Vh1aBUKiwt1540Mi0TPuj0xqsUopDRIMXNvFQHoJoRYb7QARi0sEIdARN0BpMPAF/xCyQW88/s7eP6X55Gdb34vxC61umBWt1noVKOTmWKeEUJMMR0MYxoiigWwCdqmmtKszVmL8evGY93RdaZj6VanG6Z1nYautboaLSITQDshxBnTwTCmYYE4ANI2ltsIbadTKfbm7sWwtGH48eiPSmMKESEY13YcpnSegsiwSKPFsEQcABH9G8BDsvn+OP8HRn8zGgv3LVQe09CEoXi7+9uIDo82kn2GEGKc6pgYeVggDoCIHgTwpmy+hfsW4q6Mu5BXlGdBVBpda3VFau9U1IqsZbQIloiNEFEnABsgOWFm5+md6Pd1P+z4Y4c1gQFoV60dlt60FA2iG8hmLQZwpRDiNwvCYiRggdgMEVWBdh5HDZl8H+z8AKO+GYUSKrEmsFI0qtwIK/qsQPMqzY0WwRKxCSJKB5Aok2f1odW4bdVtOH3+tDVBlaJmxZpI7Z2Kq2tfLZt1lRCilxUxMfphgdgMEb0AYIJMnvd3vI9R34yyKKKyqR1ZGxkpGWhRxfAEMZaIj3G9OP+fTJ6NJzbi2tRrkX8h36KoLic2IhbrBqwz8gOlixBigxUxMfpggdgIEVUAcAhAdb151h1dh+5Lu6OopMi6wMpBgUSeFUI8pzImpnyIaDmAvnrTHy04iqsWX4UDeQcsjKpsmsU2w48DfpSdSp4qhBhgVUyMd3ghob30g4Q8jp87jttW3WaLPADgSMERJC5LxO9//G60iGeJ6BmVMTFlQ0T1ISGPCyUXMHDVQFvkAWjvXO5Yc4fskGwKEdW1KibGOywQexktk3jihonIOptlVSy6YIn4DcNkEs/ZOQf/Oyw12qWcVVmr8Pnez2WyhECynYxaeAjLJojoCgD7ofMz2HxyMzos7OCTl+Z64OEsZ0NEW6BzWnj+hXw0nddUyRoiszSOaYztg7YjIiRCb5atQog2VsbElA/3QOyjByQEPvmnyY6RB8A9ESfj+nGie03RzC0zHSEPQFvX9Na2t2SytCY+Dtc2WCD2ofswppz8HCzbv8zKWAyhSCLPKgyJ0eihN2ExFWPm5plWxiLN9E3TZTdm1N1eRi0sEPvQPfF99o7ZKKZiK2MxjAKJPMMSUU6i3oTrjq7DkYIjFoYiz/68/fjthNQawSSrYmE8wwKxAdfiQd1DDE7sfZSGJeI4dL8TSM1MtTIOw0jGJb0FEKMGFog9tILO9x/nis/h5+M/WxyOeVgizsB1JIDuFXmp+x0qELm4WvBZIfbAArEH3duW/Hr8V9vWfchypOAIkpYnsUTspQ4AXTsUFpUUWbrXlRm2ntwq8x4kGlq7GR/DArEH3YsH953ZZ2Ucyjmcf5glYi+6763D+YetjMMU50vO41ThKZks1ayKhSkfFog96P6Snyw8aWUclsASsRXd+6M7ZepueeTk58gkN7QvPGMOFog96BbIiXMnrIzDMlgitlFZb0KnCyT7rFR8utvNqIMFYg/hehP6y/uPsmCJ2ILuEy1ljqW1g8ISqfjCrIqDKR8WCGMpLBGGCVxYIIzlKJLIczxVk2GcBQuE8QkKJDIZ2tYnLBGGcQgsEMZnsEQYJrBggTA+hSXCMIEDC4TxOW6JmFgFzRJhGAfAAmFs4XD+YSQuTzQrEX6xzjA2wgJhbEOBRCaBJcIwtsECYWyFJcIw/gsLhLEdlgjD+CcsEMYRsEQYxv9ggTCOQZFEprBEGMY3sEAYR6FAIhPBEmEYn8ACYRwHS4Rh/AMWCONIWCIM43xYIIxjUbBinSXCMBbCAmEcTU5+jgqJTGWJMIx6WCCM41EgkafBEmEY5bBAGL+AJcIwzoMFwvgNLBGGcRYsEMavYIkwjHNggTB+hyKJ/JMlwjDmYIEwfokCiTwFlgjDmIIFwvgtLBGGsRcWCOPXuCWy8/ROo0WwRBjGICwQxu/Jyc9B4rJElgjD+BgWCBMQKJLI8ywRhtEPC4QJGBRI5EmwRBhGNywQJqBgiTCM72CBMAEHS4RhfAMLhAlIWCIMYz0sECZgUSSRf7FEGKZsWCBMQKNAIhPAEmGYMmGBMAEPS4RhrIEFwgQFOfk5SFpmasU6S4RhLoEFwgQN2fnZLBGGUQgLhAkqFEnkBZYIw7BAmCBEgUSeAEuEYVggTHDCEmEY87BAmKCFJcIw5mCBMEENS4RhjMMCYYIeRRJ5kSXCBBssEIaBEomMB0uECTJYIAzjwi2RXad3GS2CJcIEFSwQhilFdn42EpclskQYRgcsEIa5BJYIw+iDBcKYIjYi1u4QLEGRRF5iiTCBDAuEMcXCngtRr1I9u8OwBAUSeRwsESaAYYEwpmgS0wQZKRkskfJhiTABCwuEMQ1LxCssESYgYYEwSmCJeOVxAC+zRJhAggXCKIMl4pXHwBJhAggWCKMUlohXWCJMwMACYZTDEvEKS4QJCFggjCUEg0SSlpva9oQlwvg9LBDGMgJdIofOHlIhkWksEcZfYYEwlsIS8cqjYIkwfgoLhLEclohXWCKMX8ICYXwCS8QrLBHG72CBMD6DJeIVlgjjV7BAGJ/CEvHKowBeYYkw/gALhPE5LBGvjANLhPEDWCCMLTSJaYL0lHSWSPmwRBjHwwJhbCMhJiEoJLI7d7fRIlgijKNhgTC2EgwSSVyWyBJhAhIWCGM7LBGvjAPwKkuEcRosEMYRsES8MhYsEcZhsEAYx8AS8QpLhHEULBDGUbBEvMISYRwDC4RxHCwRr7BEGEfAAmEcCUvEK2MBTGeJMHbCAmEcC0vEK4+AJcLYCAuEcTQsEa+wRBjbYIEwvmS2kUzBIJGkZaZWrLNEGFtggTC+5FEAM41kDHSJZJ3NUiIRACwRxmewQBhfQtBe/pqSSN1KddVG5RAUSeRZdRExjGdYIIxPEUKYlkhGSgZLpHy6qIyHYTzBAmF8DkvEMwokwjA+gQXC2AJLxDMsEcYfYIEwtsES8QxLhHE6LBDGVlginmGJME6GBcLYDkvEMywRxqmwQBhHwBLxjFsie3L32B0Kw/wJC4RxDCwRz2SdzULiskSWCOMYWCCMo2CJeIYlwjgJFgjjOEpJ5DUj+VkiDOMbWCCMI3FJZBxYImXCEmGcAAuEcSwsEc+wRBi7YYEwjoYl4hmWCGMnLBDG8bBEPMMSYeyCBcL4BSwRz7BEGDtggTB+gwqJpCcH9nkiLBHGl7BAGL/CrESaxjZliTCMIlggjN/BEvFM1tksJC3nbU8Y62GBMH4JS8QzB/MOskQYy2GBMH4LS8QzLBHGalggjF/DEvEMS4SxEhYI4/eUksgMI/lZIgxjDBYIExC4JPIoWCJlwhJhrIAFwgQMLBHPsEQY1bBAmICCJeIZlgijEhYIE3CwRDzDEmFUwQJhAhKWiGcO5h3EpA2T7A6D8XNYIEzAwhLxDIHsDoHxc1ggTEDDEmEY62CBMAGPKonER8WrDYxh/BwWCBMUqJBIRkoGS4RhSsECYYIGlgjDqIUFwgQVLBGGUQcLhAk6WCIMowYWCBOUlJLIdCP5WSIMwwJhghiXRB4DS4RhDMECYYIalgjDGIcFwgQ9LBGGMQYLhGHAEmEYI7BAGMYFS4Rh5GCBMEwpWCIMox8WCMNcAkuEYfTBAmGYMmCJMIx3WCAMUw4sEYbxDAuEYTygQiLpKbwVPBOYsEAYxgtmJdIsthlLhAlIWCAMo4NSEnnVSH6WCBOIsEAYRicuiTwOlgjDAGCBMIwULBGG+QsWCMNIwhJhGA0WCMMYgCXCMCwQhjEMS4QJdlggDGMClggTzLBAGMYkLBEmWGGBMIwCWCJMMMICYRhFsESYYIMFwjAKYYkwwQQLhGEUwxJhggUWCMNYQCmJvGIkv1sicVFxagNjGIWwQBjGIlwSGQ8TEslIyWCJMI6FBcIwFsISYQIZFgjDWAxLhAlUWCAM4wNYIkwgwgJhGB/BEmECDRYIw/gQlggTSLBAGMbHsESYQIEFwjA2wBJhAgEWCMPYBEuE8XdYIAxjIywRxp9hgTCMzbBEGH+FBcIwDoAlwvgjLBCGcQilJDLNSH6WCONrWCAM4yBcEnkCLBHGD2CBMIzDYIkw/gILxB7O601YObyylXGYJiYiRiZ5oVVxBBoqJJKe7N/niUSHRcsk1/2dYtTBArGHPL0J4ys591S6CqEVULVCVb3JSwCcszCcgMOsRJpXae7XEpGM+4xVcTDlwwKxB903u5OPNY2PioeA0Jv8jOuByEgQzBJhgTgfFog9HNGb0Mk9EMkvuO42MxcTjBKJCotC5Qip4dujVsXClA8LxB526E2YEJMgM0zkU7rU6iKT/Her4ggGgk0iV9a4UqZ3e1wIcdLKeJiyYYHYwy69CcNDwtG3fl8rYzHMgIYDZJLrliZTNsEkkVsa3SKTnO8tm2CB2IAQIh8Sv8glH9Q+oXrF6ri29rUyWTZaFUswESwS6d+gv0xyvrdsggViH2l6E/au1xtRYVFWxiJNvwb9EBYSJpNFd3sZzwS6RDpU74DGMY1lsvC9ZRMsEPvQfdNHh0djbNuxVsYiRagIxYQOE2SybBNCHLYqnmAkkCUysdNEmeQEIMOaSBhvsEDsYzUk1kWMbz8e1StWtzAc/dzb8l40i20mk2WpVbEEM6Uk8rKR/E6USNdaXTGw0UCZLN/zC3T7YIHYhBDiNIBUveljImIwqdMkCyPSR6WwSnim0zOy2T60IhbmT4lMQIBI5OWuL8vMvgKAuVbFwniHBWIvUg/WMa3GIDE+0aJQ9DHzmpmoE1VHJssvQohtVsXDBI5E/t767+hep7tMlvMA5lsUDqMDFoi9fAVgt97E4SHhWHDjAtkXjMoY23YsRrUYJZttphWxMBfj7xLpUbcHZlw9Qzbbh0KIU1bEw+hDqq/IqIeIRgH4r0yebae2oeuSrjhT5LvdG2664iYs671MduZVJoBmQogia6JiLoWIBIAXoZ0rIs2OP3YgaXkScvJz1AbmgYSYBKy7ZR2qVagmk60EQHMhhO4fYIx6uAdiPx8C2C+ToVXVVshIyUDdSnUtCulibm98Oxb0XCArDwD4F8vDt6joiXzf/3u0q9ZObWDl0KlGJ6Qlp8nKAwA+ZXnYD/dAHAAR3QJgkWy+nPwc3LLyFqw7us6CqDSe6/wcJnWaJPtiEwB+AdBFCFFsQViMF8z2RPKK8jAyfSQWZy5WG1gpBjUehNmJs42scToLoIUQIsuCsBgJuAfiDJYA+EI2U1xUHDJSMjC27ViEh4QrDahh5YZI7Z2KyZ0mG5EHARjD8rAPsz2R6PBoLOi5AC90eQGVwiopjS02IhYzrp6BeTfOM7pA9lmWhzPgHohDIKL60LZkMLRz4r4z+zBpwyR8vPtjU3FUq1ANEztNxJhWY1AhtILRYqYLIR41FQijBLM9EQA4WnAU//r1X5i1bRbOlxg/tykiJAIPtXkIT3V8ysiQlZv1ALrx0KgzYIE4CCJKgclFd1tObsG8PfOwJHMJtp7aqitPeEg4boi/Af0b9seQhCGoElHFTAjrAFwnhOAT4hyCCokAwP68/Zi7cy6WH1iODUc3gKDveJeutbqif8P+GJowFPWj65sJ4Q8AHYUQmWYKYdTBAnEYRPQSTH7R3ezO3Y20Q2k4ePYgss9mIzs/G7nnc1E7sjbiouIQFxWH5lWao1e9XoiNiFVR5TEAVwkhpCYFMNajSiJujhQcwcqsldh9ejdy8nOQk5+DE4UnUL1C9T/vrYaVG+KmK25SNTWYAAwQQvCuBg5CuUCIKATAlQD6AWgHIM71rzqAUwByAByGthvtMgD/E0JcUB2HLyGi5tDa2xpAvOtfLQAnAWQDOARtC/flAH71dDKf6/p9BGCIxWGrpgTAQag/tpYA5ALIgta7+VAIYekcUyKqAKAngEQADQE0AFAf2sI19/27G9o6nm+EEIbOencNW/YC0AhAHde/CFcdh6DdOz8C+FkIUWK4QX/Vp1QiPmaMEGKWt0Sua9oTQAKA2q5/FaB9ZjnQrukPANaruKZ2Q0Qx0NrbAn89a6sCOAGtvTkAtgJY7doF3JkQURMiepOIskmO40T0ARG1srsNMhBRbSJ6noi2S7b3ABG9TkRNPZQdQURfSZYbLJwn7X5pacFn2oOIPiKi0xLx5BHRQiLqqrOOuqTdN5sk6jhERLOI6HoFbRRE9KJE3U7gWS9tuoKIXia57+IRInqfiHqRJla/gYgqEdEYIlpJ2vdBDwVEtJSI7iHtB5IzIKI4InqbiIokPryyKCai94iont1t8gQRVSai50h7cJihiIj+Q0S1yqmnAhHNN1lHIJNPRLcp+kzbkBphf0lEV5VTR10i+jcRnTNZxyoi6miyvYKIxpuMw1fsI6Ie5bSjERG9Q/ofouXxDRFdY+aa+gLSflj+jYgOm2xvJhENJ220w9YGDSCtB6GSAiK619aGlQNpv1aOKG7vGSK6q5z6Qkl76DDl86SJzzOCtN5gscJ4SohoChGFlqrnbtKEp5I5RBRttO2l4jL7w89XfE7acI1bgKNJe1aoZD4RmZpBYhVE1I2I9ihu769E1NqOxoQQ0WuKG3Mp/yEitYsbDELaDfswqX3QXMp0IipzqTdpvxbM9ngCmZsNfKY1SPvlaRWriaghEc22sI7fiKiByXu7K2m/SP2BnUR0DRF9YmEdO4iohZlrqhoiup/M97LKI5eI+hiNTX6FmPaQew/ASKOVSpAObeZFrg/qKhPSxkffBPCAD6r7CsAtQojLXkS7buo5ALr4IA5/IxtAG70b65E26eELAE0sjUqbAGD1+PoxaN+R740WQERVAcwCcIeyqPybXACDhRAr7AzC9ax9HdY/e0oAjBNCSG98KjUG5nqYvg3fyAMAkgB8Ra6uq008Dd/IAwBuAvAOlfFSTwjxO4CrAdwPbTYb8xfxAF7Qk5C0d04rYb08AN9Mk68J4AvyMCnDG0KIU0KIwQB6Q5stGOzEAEglIqmD2VXikseH8M2zJwTAa0Q0XDaj1A1ORPdBE4iv+QHATb7uiZDBPaoU8LgQ4pXy/khE1QD8A8DDABw5ZmsDRQAShBAHyktA2pDoagDX+Swq37EDQFchxB9mCiFths7d0Kb6NlIRmB9zAcDtQoglvqy0lDwG+7JeAIUAugshNujNoFsgpL1s+QXaPHU78KlEiKgRgC0ADG3WY7Z6aKu5v/OYiKghgO0AKvoiKD/gDSHE38v7IxHNhCbeQGU5gH6e1hnpxfUQuw3APQB6IHj3zbsAYJAQwrpdJUvhuu4fwb7hxGwAnYQQR/Qk1iUQ15DKSgA3mghMBT6TCBF9AnsX860DcLWXRYevAhjnu5AcTyGARmUtNCSidtD2GvOrOf8GuFn12D0RxUOTSQ8A1wNQsm2BH3EBwB1CCEtHI1w95I8B3G5lPTqYJYQYoyehXoEkQ1s17gQslwgRXQngJ6vKl+B2IcSCsv7g6iH9Dvt6hE7lNSHE2Ev/TyL6AoD0bC0/ZDO0/aIs2QmZtOnJXaGdRW7P0Zj2UAxNIgutKNwlj0+gidpuLkA7rGuvt4R6BZIG7YW2bgiELw98icWZi5GRnYFThacQHR6NZrHNMLjJYNzW+DYz+y9ZKhEi+hKA1NQ2AuGrg1/h092fYv2x9ThacBSxEbFoXbU1BjQcgBFNRxjZ3XYntHMPLuuFyPaQss5mof2C9igsNrTrhm1UjqiM7YO2y2zwmA+gXukZWaSt4M6QrTs7Pxtvb3sbyw8sx67Tu0AgNKzcECn1UzCm9RjUq2R+zWsJlWD1odV/1lFwoQBxUXG4Lu463NroVtSKLHOdqTdGCiE+NB1cGbhmbK2Ctl2RfH4QNhzdgPl752PfmX3ILcpF3ai6SIpPws31b0aNijVMx1hUUoRPd3+KpfuXYuuprdr+b1G1cW3tazGi6Qh0qWV4ImMxtNlZZf6oM4pLHp8CuNVoGV9nfY0Fexfg1+O/4tT5U6heoTqurHklBjUehKR4qUe3m7lCiDu9JfIqECJqDGCPTM17cvdgzHdjsDJrZblp6laqi3k95qFbnW4yRZfGEokQUXUARyEx5nsg7wCGpQ3Dd4fLf2XRsHJDzE2ai+51usuG1FkI8fMlMXYGoPtFFwCMXjsa7/3+nmzdjuDZK5/FM1c+I5NlnBDizwO2jQxHzto2C+PXjUdeUV6Zf48Mi8SUzlPwWLvHZIq9iPVH1+P+b+/HxhMby/x7pbBKeLLjk5jQYQJCRWiZacohTQhR5uptM5iVx87TOzFkzRD8cvyXMv8eGxGLqZ2n4sFWDxo5/RIA8O3hb3FXxl3Ym1v+j+fbGt+Gd6971+iu08UAhggh5hsK8BLMymNP7h6MSB+BH478UG6a6+Oux5ykOWgQLbVkqBhATW9T4/UI5CkAz+utNfNMJq5JvUbXmcqhIhRvdX8Lo1uM1lv8pXwPoI9KiRDRSGjrLXSxO3c3uqV2w5EC7++cwkPCsaDnAvRr0E8mpOeFEBNLxSegrY/RvS/S9j+2o+38tigm/zzfqWqFqsgckomYCN2zuXdD64KXuL6gxyAxbj9h/QS8tPElXWkfaPUAZnXzusffZSzJXILBawbr6hEOaDgA82+cL/NQLQZQWwhxQjqwcjArj9TMVAxPH16ukEszsNFAfH7j57LSxKJ9izBkzRBdZ5Y0i22GVX1XGd1evhjAUCHE50Yyu3Hdm/MADDSS/7vD36Hf1/1wqtD7rP6aFWsiLTkNbaq1kaliiBBinqcEen5l657yeK74HHp/2VuXPACgmIpx79p78e7v7+qt4lKuAbBC8TqRAXoTFhYXov/X/XXJA9C61kPXDMXuXKmjnC+NJwUS8gCAp9c/7bfyAIBThafw+tbXZbIkQNuhFAC6Q0Iec3fO1S0PAHhr21t4c9ubMrFh08lNGJo2VPdw4pLMJRi/TmoD3VAAfaWC8oBZeSzctxC3rb5NlzwATQRjf7jsNZZHNp/cjBHpI3QfeLXz9E4kLU/CgbxyZ317IhTAJ0RkeKYUEUUA+AwG5fHt4W/RZ0UfXfIAgGPnjqH/yv7IPS/1WzvZWwKPAnG9MNO9ydicnXOw8/ROvcn/5L619zlJIlfrTfjW9rew7dQ2qcLPXjiLiRsmek/4F63prz2AwgDof7oB+OHID5aea+0rZmyegfwLUrtR/831n7qHcs4UncFjP8oPST25/kkcO3dMV1oC4eHvH0bBhQKpOmZumYktJ7fIZLlBqoJyUCGPwWsG40KJ3IkNr295XfeBaAAw7odxsvcH9ubuReKyRLMSkV6r4ZLH5wBuMVLxt4e/xc0rbtYtZDd7c/filU3lLi8ri97eEnjrgcQDqKy3thmbZ3hPVA5OkIirS1lbb3qj7xQW7F2g+5eDC/eJPKOh7fuvGyMPRCdy4twJfLr7U5ksya51MlfozfDJ7k90i6A0uedzMWenvlHPrSe3IiM7Q7qOEiqR7enUla7kEuyShxu9PcGdp3di9aHVhurYd2afGYmEAPiYiHS/XyslD0Or3I3Kw82sbbNQQrqPQalBRJU8JfAmEN0HF+eez8WOP3boTV4mDpBIbeicmXb83HFsPrnZUCXFVIxvD38rkyWeiCoDeE4m06J9i/D9EcNbJDmON7a9IZNcQNsGIl5vhhUHjS+f+OrgV/rSZelLZ6YOF6aOAbRbHgCQnp2uK52nyTp6cEtkf56hgzRDAHxEREO9JXTJYz5MyKPPl30MywPQnlubTm6SyVLH0x+VCWTHaXPycGOzRHQ/bA6dPWSwCo2ss1kyyeMAPA7tlENdFJUUYcL6CbJhOZpfj/+KH4/+KJNlNCS249h/xvhJvHrzmqnjQN4BmXdZuvdPeNcAAB8ZSURBVO/lS3GCPADtO3L2wlmv6TLPZJqqB9AkkrQsyYxEPiSiYeUlcG0RswDayaXSuOWh53p4Q/Ie9PhDxJtAdC9cOH3+tN6kXlEkEd1Db6XQvW1JQbHcGPalSI7XNgUgNRb19va3set04O2L98ZWqV5IdUgsdjtTdEY6Htm8ZuoopmKZdyeGfkQ5RR5ujhXIDykaRUFPZG5ZGxKWkkeKkYLX5qxVJg9Aew8ngUcHOHZ/m/vW3of//v5fo9mvgbaLrxGJOJFHAETqTZx7PhdTfp5iYTj2MX/vfEPvKRjvOE0eejE4FbdMMs9kqpDICPf/4ZLHQuiY0VQWa3PW4uYVNyuTByB9vTxOqXWsQADg3rX3skQ0pFY8vfTbSwH7kC0sLvTbBZFOxl/lAQA96/X0nkgCt0QMDo0JAHOIaCQRVYS2m7ehKdVWyKNmxZroUL2DTJZsT390tEAAlogsWWezTM2G8wfe3v62zEwSxgv+LA8AaFmlpdHtOspFgUQ+gLbQ2dD+a9/kfKNcHgAwpvUYhAjdj/18AB7fTTheIABLRIZJGyZJrzHwNzLPZOKLA1/YHUZA4O/ycDP96umoGKr2VIP9efvNSqSjkYzf5HyDviv6KpdH09imslvvrPV2NIBfCARgiehh08lNmLtrrt1h+ATZ1d/M5QSKPACgQ/UOeP/69yEU79ZvUiLSWCWPahWqIbV3KqLDo2WyLfeWwG8EAmgSMTH+HfASefzHx4NmaOfrg19jT67UHp9MKVTI447VdzhCHm6GJAzBf6//r2US2Xdmn9JyL8VKeazuuxotq7SUzepVIMa2vLSR0Wu1jRdHtRhlJLtbIjcJIYzPp3QgK7NWml5QBQBxUXFGtxCXgohkFzRdnB+EWdtm4ZWuUlszMFAnDyfur3ZP83sgIDB67WilP6b25+1H0rIkpKeko1Fl9Sf9ut95yG7H4g23PDrWkB5NWyuE8DoVze8EAiiRyAoi6hMoEimhEjz+4+OmywkVoViTvMbILxVD9Pyip+EtKABg9o7ZmNp5KiLDdM9wDnoCWR5u7m5+NwBYIpHEZYnISMlQKhEr5bEmeY3srCs3ujbs86shrNKYPN/iWhhfbOg45u6aa+rXvJvRLUb7TB4AMKnTJFP5TxaexLw9HnebZkoRDPJwc3fzu/He9e/JzDjSxYG8A0qHszKyMyyRR/WK1c3IY4UQQtdeS34rEIAlAgAFFwowaYO5BzEARIdH47nOUlttmea6uOuMHLB1EZIr04OWYJKHm7ua3WWpRDwdWqWHjOwM9P2qryXyWN13tVF5nAfwpN7Efi0QgCXy2pbXZPfVKpPx7cejdqTujYiVMbGT1Nb2l/Hz8Z+x/uh6RdEEJsEoDzd3NbsL71//viUSSVqeZFgiVspjTV/DPQ8AuF8I8ZvexH4vEECbnfX+jveNZvdbiRw7dwwvbnzRdDnxUfF4tN2jCiKSp1e9XmbOqAbAU3o9EczycHNnszstk0jicvmeSHp2uqXyaF+9vdEiXhVCfCCTISAEQiCM/ma0aYlA4uwTJzDl5ymyJ4yVydSrpiIqTPc+ksqZ2NFcL+SzPZ/hxDllp7cGDCyPv7iz2Z2Yff1s5RI5mHdQSiLp2elI/irZifJIBfCEbKaAEAigTCKGtwD2NbtO78Lb2982XU7bam1xV7O7zAdkgpQGKWa63DhXfM7M5x6ohIDlcREjm420VCLe1iVZKY+05DQz8lgKYJAQQvrDDhiBAEok4vuXAAaZsH4CikqKTJczres05V8oIzzd8WlT+d/a/lbQLKLUiQDL4zKslEjS8qRyJZKWnWaJPGpUrIG05DS0q9bOaBGpAG4XQug7TP4S7H9yKEaBRBzP/w7/D4v2LTJdTq96vdC7ntdjj33CrY1vRauqrQzn35u7V/bEPqYMAlkebkY2G4kPEj+wpiey7PKeSFp2GlK+SrFEHmuS15iRx2JoPQ9D8gACUCBA4Evk8XXmFw2GiBBM6zpNQTRqEBB4soPu2YNlInnkLXMJC/YuCHh5uBnRdIQlEsk6m3WRRBwujzvMyAMIUIEAgSuRBXsX4IcjP5gu585md5q5+SxhSMIQJMQkGM7/1cGvLN+vKFBZsHcBBq8ZHBTycDOi6QjMSZxjmUTe3/G+ZfIwOWy1CJo8TI+BO0Yg49qNU3qyGBB4EikqKcKT6839SgeAqLAoTO08VUFEagkVoZjQwfg57iVUglnbZimMKDiwSh4Nohvg1ka3Ki1TNcObDrdMIqO+GaVcHjUr1kRachraVmtrtIiFAAarkAfgoL2wGlVuhIyUDCQuS8SBvAPKynVLBNA2WvNn3tr2Fnbn7jZdzrh241C3Ul0FEalnZLOROH3+NEpg7IV49QrVDdf9QKsHcPzccUN5K4f71QzwP7FSHhkpGfjP1v8oLdcLhwBI39jDmw6HEAIj00c6eiJGzYo1sSZ5jRl5LAAwVJU8AAcJBGCJeOL0+dOY8ov5c85rR9bGE+2lp3v7jPCQcIxrN86WuiUP2/F7rJZHw8oNlZarg/4A5gKQno0xLGEYAODO9DsdOYzn7nm0qdbGaBHzAQxTKQ/AQUNYbtwS4eGsi3lx44uGfx2X5tkrn5U9VIYJQAJQHgBwBMANALYayTwsYRjmJM1BqAhVG5VJFMjjcyjuebhxnEAA6yUye8dspeVazcG8g3ht82umy2lZpSVGtxitICLGnwlQeQAAhBBuiWwxkn9YwjDMTZrrGIkokMdn0Hoelpz85UiBANZKZNQ3o/xKIhN/mohzxedMl/PS/72EsBBHjVoyPiaQ5eFGCHEUJiQyNGGoIyRSs2JNpKekm5HHPADDrZIH4GCBAJpE0pPTg1oiG09sxEe7PjJdTmJ8IlIapCiIiPFXgkEeboQQx6BJZLOR/EMThuLDpA9tk0ityFpIT0lH66qtjRbxKYARVsoDcNhL9LJoHNMY6cnpSFqepPzF+qhvtBMN3SeYOREV55wLCGVHvxIIB/IO4Ej+ERSWFIKIQKC//rP0f7f4/5OlZ72eHres35O7x/D2MKEiFE1jmxrK6wuCSR5uhBDHiKgHgNUApBdNDEkYAgAYkT7Cpy/Wa0XWQlpymhl5fALgTqvlAfiBQIDglcjyA8tNHfnqZkjCEFxZw9C2SH9y+vxpTPttGubumouDeQdNx+Rr6lWqh0FNBnlM0/vL3l43xCuP2pG1cXjEYUN5rSYY5eHmEolI7zboa4kokMfH0OThE+M5egirNG6JBMtwVlFJER770fy00oqhFfGvLv8yVcZ3h79D88+a4/lfn/dLeQDagVkRIRF2h+FzglkeboQQxwH0AKD7oKTSDEkYgo9u+Mjy4axakbWQnmxq2Ooj+FAegB8JBLBeIh/s/EBpuWaYtW0Wdvyxw3Q5/2jzDzSIbmA4/9qcteixvAeOFBwxHYtdxEXF4d6W99odhs+Zv3d+0MvDjRDiBDSJbDSSf3CTwZZKxC0PExuKfgjgLl/KA/AzgQB/SeSK6CuUlksg3JNxj2MkoqpH1K1ON8N5T5w7gVtX3YrzJab2W7Od8e3Ho2JoRbvD8Cnz987HkDVDWB4XUwTA8N4ilcMrWyaQCqEVzN6j3/taHoAfCgTQJJKRnBHQEnmig5rV4k9veNrwQ+Sfv/5TyeJFO6kdWRv3t7zf7jB8CsvjcogoBsBXAK4xkn/5geUYuHKgZT+m3OeJGD1jHcAsIvL5je6XAgECXyKDmwzGNbUN3esXsfnkZry7Xf6gxaKSIszZOcd0/XbzWPvHEBkWaXcYPoPlcTml5HG1kfzL9i/DrSut74kbPWO9FG8R0QMqY/KG3woECHyJzLh6BgSE6XIm/zQZp8+flsqz6eQmnCo8ZbpuO6lZsSbGtBpjdxg+g+VxOUQUC+BrGJTH0v1Lcduq23w2jCt7xnoZzPKlRPxaIEBgS6RLrS4Y1nSY6XKOnTuGqb/Ibd+ek59jul67ebTdo4gKi7I7DJ/A8ricUvLoaiT/0v1Lcfuq233+DlDvGesemEVED6qMqTz8XiCA9RKxcyjnhS4vKHkIvr7ldamt4KtGVDVdp51Ur1gdf2v9N7vD8Aksj8shoioAVgL4PyP5fd3zuBRvZ6zr4E0isrz7HRACAayVyN0Zd9smkXqV6inZZvx8yXmpdSVtqrXx63UTY9uODYpdh1kel1NKHl2M5E/NTMVtq24zvCuBKso7Y12CN6yWSMAIBLB2iq+dEhnfYbySA6BSM1ORlp2mK21sRCySGySbrtMOqlaoiodaP2R3GJbD8rgcIqoKYBWAq4zkX5K5BLevvt12ebi59Ix1A7xBRJZ1xQNKIADQJKZJwEmkUlgl/Osqc6vJ3Yz9fqzuvbWmdp7ql7v3PtL2EcRExNgdhqWwPMrELY/ORjIvzlyMQasHOUYebtwSMXEa6X+skkjACQQITImMaDYCnWsa+l5cxKaTm/Df3/+rK22rqq0wvet003X6kioRVfBwm4ftDsNSWB7lshiAoU3fFu1bhDtW3+E4ebjJOpuFpGVJZiXyd5UxAQEqEMB6iczdOVdpud4QEJhx9QwlZU36aRJyz+fqSvtQm4cw/erptp+NoJeH2z6M2IhYu8OwDJaHR5oYybRo3yLcsca58nCjoCfyumqJBKxAAGslMmvbLKVl6qFbnW64vfHtpss5WnBUalrv2LZj8cOAH3BD/A1K1qVYRWxELB5p+4jdYVjKqG9GsTwU4pbHhRK1O583rNwQs7rNUj4R5dDZQyokouwFof8NcEvilkjiskRknc2yOxzTvPx/L2Pp/qUoLC40Vc6/t/wbD7R6AE1i9P1ou6rmVViTvAZZZ7Pwv8P/w5GCI7hQcgEhIuSifwLir/8ND38r9ff9efsx7odxptoDaBtHVomoYrocJ0OQPwfFE8Esj4X7FmLwmsHK5dGociOkp6SjQXQD1K1UV/l0YLdE0pPTjZ5B828iEkKIf5uNJeAFAmgSyUjJCAiJNKzcEGPbjsWLG180VY57Wu/iXoul8tWrVA93NLnDVN2Xct/a+0yXERMRg7FtxyqIJngIZnks2LsAQ9KGWCKP0kdxpzRIwcJeC5VvhXLo7CEkLU8yI5GZLonMNBNHQA9hlcYtkXqV6tkdimme6viUx5P19LIkcwnSs9MVRGScA3kHlExKeKj1Q6hawb8XP/qSYJbH/L3zLZFH45jGF8nDTXL9ZCzstdCy4axdp3cZLeI1IjI148RfBWLoigWKRCqHV8Y/r/qnkrLG/qB/Wq8VvLjxRdO/zCqHV8a4duaHwIIFBfLw203SPt/7OYamDbVGHsmXy8NNcv1kLOq1CBVCKyitNzs/W4VEDL849FeBzADwqpGMgSKRe5rfgw7VO5gu57cTv+G9He8piEierLNZeO9383X/vfXfUa1CNQURBT4K5PEqgE/VReQ7Pt/7OYalDVMujyYxTXTtgtG3fl8s6mmdRHae3mm0iBlGeyL+KhAC8DiCWCIhIgTTr1azRmPihom6p/Wq5KWNL5nufUSHR+PRdo8qiiiwUSSPxwHFb/J9gKXySNG/hdLN9W/G4l6LLZFI0rIkMxJ5jYj6yWbyV4FACBH0EkmKT0L/hv1Nl3O04Cie//V5BRHpJyc/R/eCRk+MaTUG1StWVxBRYKNKHq7vnV/x2Z7PMHSN+mGrhJgEQ8+QPlf0capEPiYiqQPZ/VYggBqJpKek+7VEXun6ipKXczO3zDRzBoE0L//2Ms4VnzNVRqWwSnisvfmNJgOdYJbHvD3zMCxtmPK1M0bl4abPFX2wpNcSpw1nRQNY6toGXxd+LRDAvEQSYhL8WiIJMQn4exvzi0sLiwvx+LrHFUTknSMFR/D29rdNl/NgqwdRs2JNBREFLsEsj093f4rhacOVy6NpbFNkpGSY3uD0pituQmrvVLNnoV9GTn4OEpclYscfO4xkbwzteaqLgFgHIoQgInI3WnpA3C2RpGVJfrlOZHKnyZi7c67p88sX7VuExZmL0bZaW0WRlc3MzTNRcKHAVBlRYVF4vL1vhOevBLM8Ptn9CUamj7RMHvFR8UrK612vN1J7p6L/1/1N98hLk5Of8+c6keZVmstmH0tErwshjnhLGBACAYJbIrERsXiu83P423fmN9wcuHKggois54FWD6BWZC27w3AsCuQxHSyPi2gW2wzpKenK5OGmV71eTpNIFICJALxueeL3Q1ilUTWcpeLsDV9zf8v70bqq1PsvvyUyLBLj24+3OwzHokgej/mjPD7e/bFfycNNr3q9sLT3UkSGRSotNyc/B4nLDQ1n3UVEXl/QBJRAADUSUTG+6WtCRaiyab1O5/6W9ytZiR+IBLM8Fu1bhDvT71Quj+ZVmisdtiqPnvV6WiKRw/mHkbg8EZlnMmWyRQO43luigBMIELwS6VWvF26uf7PdYVhKxdCK3Psoh2CWx9ZTWzEifYQl8khPTkdcVJzScsvjxro3YlnvZZZIJOXrFNkhshRvCQJSIEDwSuTVrq/65SmCerm35b0++zL7E8EsDwB49IdHkX8hX2mZLaq0QEZyhpn7zdCWLz3q9rBEIltObsEbW9+QydLTW4KAFQgQnBJpUaUFHmz1oN1hWEKF0Ap4ov0Tstns2+jLRwS7PPbk7sHXWV8rLbNllZZIT05Hnag6RouYBqAlgO1GMveo2wPLb1qOqLAoo/WXiaRAriAijwcABbRAgICRiNRRac9e+WxA7kw7usVo2c/hewD+NaVOkmCXBwCsPrRaaXktq7REeoopebwM4AnXNNgkANuMFHJD/A3KJbLvzD7syd2jN3kUgMqeEgS8QICAkMibkPglXa1CNUzuNNnCcHxPREgEJnSYIJvtOfjhvk16USCPGfBzeQDAwbyDyspqVbUV0lPSzUzSeAnABPc1dUnkBhiUSFJ8knKJSL5M92hRbwI5o7eWyuEeRaU6v+643CiZ4pusbopvdFi0TPIfALwjk+Fvrf+GZrHNpGJyMqNajJLdLeBHAKsgMQ5tptemdzdgVauOFcnjUYPy0H0cptn2ql6l7YlWVVshPdmUPF4E8OSl17RUT2SrkUKT4pPwxU1fKB/O0kmopz96E0i23lrMHkwjeW75ISN1mJVI09imyiRSL1rqYZgDYDIA3VvmhoeE45Wur8iG5UgiQiLwZIcnZbM95/q8va6mdWPwZDcAQEJsgq508ZXMTwW1WR6AxHPBTHvDQsJQM9L7VjUqDsVqXbU10pPTzSxO/ReAp8q7pkKIo9B6IoYkkhifiC/7fIlKYZWMxvcnktfL4/fHm0By9NZSO7I22ldvrzf5RVQKq4Rral8jk0X3DXwpTpBIREgEro/zOsW6NDlCiGMApspkSmmQghvr3igVmxO5u/ndsj8w1gNwv1XVLZABDQfI1HER/Rvo2xU5MS7RcB2AI+QBSHz/zLS3e53uCBUefwAD0NZPmKF11dZIS04zI4/nAUz0dk1LSWSLkUquj7vetESaxDRBk5gmepMXwUsP3qNAhBDnAOjeYGlMqzF6k17E3c3vlu2qGhYIYL9EhjcdLjtk5xb56wB0vwEDgOlXT9f1JXQq4SHheLKjdO9jSqkvs+7rdUvDW4zsG4T60fUxNGGorrTX1rnWcE/HIfIAJEYAWlZtiS61uhiq5M5md+pK1yC6AZLrJxuqo021NkhPMdXz+CeASXqvqVmJXBd3nSmJ/KPNP2SS53hrl56X6Gv11nZP83ukb5a4qDhMvlLqhe/PQog8qUrKwC6JVKtQDc91fk4my0/u9gohCgFI7V/etlpbjGoxSiaLoxjRdAQaRDeQyfITgC9L/e8vy0t4KeEh4Xin+ztS62hCRAjeue4d3XP2Q0Uopv3fNN3lu3GQPABgEwBdh2sICLzS9RWECLn5Op1rdsbwpsN1p3+l6yuIDpd6r4i21doiLTnNzI7OUwFMlr2mrtEEUxJZcfMK6fZ2rNER97e8XyZLurcEej7VpXprCwsJw+Jei5EQo288uGqFqkjtnSr7AS6RSewJVRLR+4CrFFYJC3sulH0ZvPiS/50KHR9saaZ2nmp6koMdhIpQPNXxKdlsUy75Qv8C4LDezNfFXYf3rntPl0RCRSje7v42etfrLRVg/4b9MbHTRN3pG1Vu5CR5QAjxByTuwe51ukttsxMfFY9FPRdJ9ZybV2mOT3t8qnsk48oaV2JN8hoz8pgC4Bmj17SURDYbyd+9Tnes6LNC98SPxjGNkdorVfb8keXeEugRyBeQmEIaHxWPdbesw6DGgzym61anG9bfsh5X1bxKb9FulAkEUCORDQM3IKWB51X/7au3x3f9v0NifKJsFRe11xXvOEhMT60VWcvIg9h2hiQMkRmvBTRZXHTTCyFKACyTKWRks5FY03cNWlRpUW6aZrHNsKrvKoxuMVqm6D+Z2nkq3uz2pteZNb3r9cb6W9abkcdrUCiPUqTKJH64zcP4+IaPERvh+awi93NB8p0XACC5fjK+SfnG46aioSIUD7R6AN/2+9aMPJ4TQhiWhxuXRHrAoES61emGdQPWeX1/PLDRQKwfIH1NLwBY6S2Rx1WGbohoGQDpQcZfjv+Cz/Z8hp+O/YRj546hWoVqaFOtDQY2Goik+CQIfdWXZiOATlbMW3etuJwGA1vBu/n+yPeYt2cefjzyI46fO44qFaqgddXWGNhoIPo16GfkXcRPALqU1V4ieheA7qdXYXEhhqYNxdmis7Ix2MZr17zm8SFeBgOEEJc92FzHdG6GzvvdTVFJEVYcXIHUzFTsPbMXIQhBo5hG6Fu/L5LrJyM8JFymuDLJzs/Gm1vfxBcHvsCe3D3Iv5CPOlF1cH3c9bir2V24sd6NRr4nbl4DMM6i70tdAJmQPBLixLkTeHPbm1i2fxl2nt6JvKI81I6sjW51umF40+FIbpBspr0AgGIqRmpmKpZkLsGu07tQUFzwZx1DEoboHiEph2eFEFJj0N4gohoA1gBoZ7SMtOw0LMlcgk0nNuFU4SnUqFgDXWp1waDGg9CxRkcjRc4TQgzxlkivQNoC+E1vegu5SQihds+CUqiQiGJuFEKsKesPRFQbwC54WSkaRHj8cUFEcwCM9G1I8hDI9APUhWXycENErwMwdRymwvb6gmeEEFOsKFiFRBRSDKCVEMLrubi63mwJITYD+MBkUGZJg44ulRnMDmcpZmV58gD+XJz0gg/jcTrPeXlYPgPJLWHswF/k4WIqAFMTWvxIHpOtkgcACCGOQxvO+s2qOiSYrUcegESPwtVl3QzAjk2WzgPoKoT41ReVOaAnUght6GqTp0REFAlgBwD5AePA4jcAHb09MInoMWifayDjK3kAAIjoaWhTWQOZSUIIn7SRiKpD64kYW1RnnpMA2gshdO0hp3tunRDiEIBB0Lo3vuY+X8kDcERPZLQ3eQCAEKIAgP+9HVePt96Hm1cBfGx1MDbiU3m4eAnAVz6sz9c87St5AIAQ4gTs64kUA7hdrzwMQURjyLe8bFljvLdVENErPm7vi5IxhhDRTz6O0Un8RES6fwgRUSQF5vWaQV623rYKIoolom02t98KpFewKrym1YnoVx+392++atxkHzXoXSKydRk1aRJ51sntJaJORFTooxidxHnSJnjIXq8aRLTW5thV8hLZJI9S17QJER2w+TqoopiIHrHzerquaXUi+t5HbX6BfHkPEdHtRJRvUWOKiegRnzbIC0Q0yOL2/sNMe4noPoticzKGh++IqAIRfWhhbO8TUUci2mxhHeeIyDEzy4ioNln7wCsioidIu7ZW8QcRya0MtRDS7tPZFrb3PBHdY1fjOpL6rushIupjS4O8QERXEtEuxe3NIqJeCmITRDRNcWxO5nUiMnV2L2nX7BEiOq0wrjwiGlGqjkpENFdh+W4OEpH0KlyrIaKKRPSBBe09QERXl6rndiI6pbiOjUTkuDMQSLtPHyXtYa+SHCK6zu7GhRHRKNIe/GY4TUQTiMiWTe/1QkThRPQgER022d4/XO1VevAxEQ0lorMmY3MyF4joAcXXrCYR/cdVtlEKXWVcNiOOtAdAXyL62WzjSbtvniQi8/t6WwgRXU9E6xW0N5+0IbrLDlwhojgimk7mRwb2EtEwsnm43BtE1JiIPjbZViKiM0Q0iYjkNtOyEiKKIu3BupK0rqZevietW1rd7jbIQNovy4eJKIO0ISg9lPiivUSUQNov9FyJz8Hp5BPRm0Qkv12u/uvWhLQv1iaJuH4nopdJm+burXxBRANIu2dkZbWLiP5JZTxInYqrvbcTUZqB9h4jbWKA19OdiKiW69pslyi/kIi+IqLRRBThi+uhCiLqQFqv9oTkNd1J2rsOw3u4XIol7xiIKBZAHwCtANQFEA+gFrQ5xtmuf7sBfCmE0H3miFMhTQZ9ALSBdgRkHICaAE5Aa+sh/NVe3Rv7KYgrGkBvAE0BNIb2GfgTZwEcBfArtGun+2gBs5AmqusA1AfQwPWf56FtzHgE2ue5Ugixz2D5VaF9Nr0BNIR239QBUNFVR47rP3+EtqHpDn8+epY08d0M4CZo19P9XKgA7bmQ4/r3PbT9934WQkgvGSCiBtCuaWv8dU2joX1m7mv6C7TPTvpkUydB2hDuNQD6AkjAX8+eKtC+N+5r+huAVCHE76pj+H8bhK1cLwdCJQAAAABJRU5ErkJggg==;" vertex="1" parent="1">
          <mxGeometry x="420" y="490" width="79.34" height="59.5" as="geometry" />
        </mxCell>
        <mxCell id="TLUjXwK4e5CFKx_HIJDN-9" value="" style="shadow=0;dashed=0;html=1;strokeColor=none;fillColor=#666666;labelPosition=center;verticalLabelPosition=bottom;verticalAlign=top;align=center;outlineConnect=0;shape=mxgraph.veeam.linux;gradientColor=none;" vertex="1" parent="1">
          <mxGeometry x="519.5" y="485" width="70" height="65" as="geometry" />
        </mxCell>
        <mxCell id="TLUjXwK4e5CFKx_HIJDN-10" value="ALB" style="text;html=1;strokeColor=none;fillColor=none;align=center;verticalAlign=middle;whiteSpace=wrap;rounded=0;" vertex="1" parent="1">
          <mxGeometry x="-80.37" y="210" width="60" height="30" as="geometry" />
        </mxCell>
        <mxCell id="TLUjXwK4e5CFKx_HIJDN-11" value="SSL Certicate" style="text;html=1;strokeColor=none;fillColor=none;align=center;verticalAlign=middle;whiteSpace=wrap;rounded=0;" vertex="1" parent="1">
          <mxGeometry x="-140.37" y="397.93" width="60" height="30" as="geometry" />
        </mxCell>
        <mxCell id="TLUjXwK4e5CFKx_HIJDN-16" value="Port 80" style="text;html=1;strokeColor=none;fillColor=none;align=center;verticalAlign=middle;whiteSpace=wrap;rounded=0;fontColor=#FF0000;" vertex="1" parent="1">
          <mxGeometry x="70" y="206" width="60" height="30" as="geometry" />
        </mxCell>
        <mxCell id="TLUjXwK4e5CFKx_HIJDN-18" value="&lt;font color=&quot;#ff0000&quot;&gt;Port&lt;br&gt;3000&lt;br&gt;&lt;/font&gt;" style="text;html=1;strokeColor=none;fillColor=none;align=center;verticalAlign=middle;whiteSpace=wrap;rounded=0;" vertex="1" parent="1">
          <mxGeometry x="340" y="195" width="60" height="30" as="geometry" />
        </mxCell>
        <mxCell id="TLUjXwK4e5CFKx_HIJDN-19" value="Public&lt;br&gt;User" style="text;html=1;strokeColor=none;fillColor=none;align=center;verticalAlign=middle;whiteSpace=wrap;rounded=0;" vertex="1" parent="1">
          <mxGeometry x="-326" y="330" width="60" height="30" as="geometry" />
        </mxCell>
      </root>
    </mxGraphModel>
  </diagram>
</mxfile>
